<svg width="270" height="87" viewBox="0 0 270 87" fill="none" xmlns="http://www.w3.org/2000/svg">
<path fill-rule="evenodd" clip-rule="evenodd" d="M11.1033 3.9169L4.67499 9.41345V77.5864L11.1033 83.083H258.897L265.319 77.5864V9.41345L258.897 3.9169H11.1033Z" fill="url(#paint0_linear_1_1174)"/>
<path fill-rule="evenodd" clip-rule="evenodd" d="M4.67505 9.41351L11.1034 3.91696L9.15731 0L0 7.83393L4.67505 9.41351Z" fill="url(#paint1_linear_1_1174)"/>
<path fill-rule="evenodd" clip-rule="evenodd" d="M11.1033 3.9169L4.67499 9.41345L9.36181 10.993L13.0552 7.83388L11.1033 3.9169Z" fill="url(#paint2_linear_1_1174)"/>
<path fill-rule="evenodd" clip-rule="evenodd" d="M11.1035 3.91696H258.897L260.843 0H9.15747L11.1035 3.91696Z" fill="url(#paint3_radial_1_1174)"/>
<path fill-rule="evenodd" clip-rule="evenodd" d="M258.897 3.91696L265.319 9.41351L270 7.83393L260.842 0L258.897 3.91696Z" fill="url(#paint4_linear_1_1174)"/>
<path fill-rule="evenodd" clip-rule="evenodd" d="M265.319 9.41345L258.897 3.9169L256.945 7.83388L260.632 10.993L265.319 9.41345Z" fill="url(#paint5_linear_1_1174)"/>
<path fill-rule="evenodd" clip-rule="evenodd" d="M256.945 7.83388L258.897 3.9169H11.1036L13.0554 7.83388H256.945Z" fill="url(#paint6_radial_1_1174)"/>
<path fill-rule="evenodd" clip-rule="evenodd" d="M0 7.83392L4.67505 9.4135V77.5865L0 79.166V7.83392Z" fill="url(#paint7_linear_1_1174)"/>
<path fill-rule="evenodd" clip-rule="evenodd" d="M4.67499 9.41348L9.36181 10.9931V76.0118L4.67499 77.5864V9.41348Z" fill="url(#paint8_linear_1_1174)"/>
<path fill-rule="evenodd" clip-rule="evenodd" d="M270 7.83392L265.319 9.4135V77.5865L270 79.166V7.83392Z" fill="url(#paint9_linear_1_1174)"/>
<path fill-rule="evenodd" clip-rule="evenodd" d="M265.319 9.41348L260.632 10.9931V76.0118L265.319 77.5864V9.41348Z" fill="url(#paint10_linear_1_1174)"/>
<path fill-rule="evenodd" clip-rule="evenodd" d="M4.67505 77.5865L11.1034 83.083L9.15731 87L0 79.1661L4.67505 77.5865Z" fill="url(#paint11_linear_1_1174)"/>
<path fill-rule="evenodd" clip-rule="evenodd" d="M11.1033 83.083L4.67499 77.5864L9.36181 76.0118L13.0552 79.166L11.1033 83.083Z" fill="url(#paint12_linear_1_1174)"/>
<path fill-rule="evenodd" clip-rule="evenodd" d="M11.1035 83.0831H258.897L260.843 87.0001H9.15747L11.1035 83.0831Z" fill="url(#paint13_radial_1_1174)"/>
<path fill-rule="evenodd" clip-rule="evenodd" d="M258.897 83.083L265.319 77.5865L270 79.1661L260.842 87L258.897 83.083Z" fill="url(#paint14_linear_1_1174)"/>
<path fill-rule="evenodd" clip-rule="evenodd" d="M256.945 79.166L258.897 83.083H11.1036L13.0554 79.166H256.945Z" fill="url(#paint15_radial_1_1174)"/>
<path fill-rule="evenodd" clip-rule="evenodd" d="M269.223 8.09468L266.926 11.2046L265.319 72.5475V9.41347L269.223 8.09468Z" fill="white"/>
<path fill-rule="evenodd" clip-rule="evenodd" d="M0.771179 8.09468L3.06786 11.2046L4.6749 72.5475V9.41347L0.771179 8.09468Z" fill="white"/>
<path fill-rule="evenodd" clip-rule="evenodd" d="M9.36188 10.9931V76.0118L13.0552 79.166H256.945L260.632 76.0118V10.9931L256.945 7.83392H13.0552L9.36188 10.9931Z" fill="url(#paint16_linear_1_1174)"/>
<path d="M9.36188 10.9931L18.1277 15.2151L13.0552 7.83392L9.36188 10.9931Z" fill="#FFCDA1"/>
<path d="M9.36188 76.0118L18.1277 71.7848L13.0552 79.166L9.36188 76.0118Z" fill="#FF961F"/>
<path d="M260.632 10.9931L251.866 15.2151L256.945 7.83391L260.632 10.9931Z" fill="#FFCDA1"/>
<path d="M260.632 76.0118L251.866 71.7848L256.945 79.166L260.632 76.0118Z" fill="#FF961F"/>
<path opacity="0.5" d="M135 43.5L18.1277 15.2151H251.866L135 43.5Z" fill="url(#paint17_radial_1_1174)"/>
<path opacity="0.5" d="M18.1277 71.7848C57.0832 62.3565 96.0386 52.9282 135 43.5C173.955 52.9282 212.911 62.3565 251.866 71.7848C173.955 71.7848 96.0387 71.7848 18.1277 71.7848Z" fill="url(#paint18_radial_1_1174)"/>
<path opacity="0.5" d="M18.1277 15.2151L135 43.5L18.1277 71.7848V15.2151Z" fill="url(#paint19_radial_1_1174)"/>
<path opacity="0.5" d="M251.866 15.2151L135 43.5L251.866 71.7848V15.2151Z" fill="url(#paint20_linear_1_1174)"/>
<path d="M13.0554 7.83391L18.1278 15.2151H251.866L256.945 7.83391H13.0554Z" fill="url(#paint21_radial_1_1174)"/>
<path d="M9.36188 10.9931V76.0118L18.1277 71.7848V15.2151L9.36188 10.9931Z" fill="url(#paint22_linear_1_1174)"/>
<path d="M260.632 10.9931V76.0118L251.866 71.7848V15.2151L260.632 10.9931Z" fill="url(#paint23_linear_1_1174)"/>
<path d="M256.945 79.166L251.866 71.7848H18.1278L13.0554 79.166H256.945Z" fill="url(#paint24_radial_1_1174)"/>
<path opacity="0.65" fill-rule="evenodd" clip-rule="evenodd" d="M18.1278 69.8804L83.0419 15.2151H63.9732H40.4924L18.122 34.0865C18.1512 38.4168 18.1278 69.8804 18.1278 69.8804Z" fill="url(#paint25_radial_1_1174)"/>
<path opacity="0.65" fill-rule="evenodd" clip-rule="evenodd" d="M118.503 15.2346L51.7244 71.4648C55.7275 71.4992 63.7219 71.5681 63.7219 71.5681C63.7219 71.5681 67.5087 71.5977 69.408 71.6124L136.373 15.2199C130.413 15.2199 124.458 15.2248 118.503 15.2346Z" fill="url(#paint26_radial_1_1174)"/>
<path opacity="0.65" fill-rule="evenodd" clip-rule="evenodd" d="M238.782 15.2151L171.566 71.7848C183.937 71.7454 196.051 71.8783 208.429 71.7848L251.872 35.2232V15.2151H238.782Z" fill="url(#paint27_radial_1_1174)"/>
<defs>
<linearGradient id="paint0_linear_1_1174" x1="4.67733" y1="43.5014" x2="265.319" y2="43.5014" gradientUnits="userSpaceOnUse">
<stop stop-color="#D69705"/>
<stop offset="1" stop-color="#FFDD6E"/>
</linearGradient>
<linearGradient id="paint1_linear_1_1174" x1="-0.00233755" y1="4.70675" x2="11.1034" y2="4.70675" gradientUnits="userSpaceOnUse">
<stop stop-color="#FFDD6E"/>
<stop offset="1" stop-color="#D69705"/>
</linearGradient>
<linearGradient id="paint2_linear_1_1174" x1="4.67733" y1="7.45546" x2="13.0552" y2="7.45546" gradientUnits="userSpaceOnUse">
<stop stop-color="#A87219"/>
<stop offset="1" stop-color="#6B4200"/>
</linearGradient>
<radialGradient id="paint3_radial_1_1174" cx="0" cy="0" r="1" gradientUnits="userSpaceOnUse" gradientTransform="translate(135.001 1.96044) scale(131.159 110.441)">
<stop stop-color="#FFF5B0"/>
<stop offset="1" stop-color="#F5D36C"/>
</radialGradient>
<linearGradient id="paint4_linear_1_1174" x1="258.899" y1="4.70675" x2="269.999" y2="4.70675" gradientUnits="userSpaceOnUse">
<stop stop-color="#FFDD6E"/>
<stop offset="1" stop-color="#D69705"/>
</linearGradient>
<linearGradient id="paint5_linear_1_1174" x1="256.947" y1="7.45546" x2="265.319" y2="7.45546" gradientUnits="userSpaceOnUse">
<stop stop-color="#6B4200"/>
<stop offset="1" stop-color="#A87219"/>
</linearGradient>
<radialGradient id="paint6_radial_1_1174" cx="0" cy="0" r="1" gradientUnits="userSpaceOnUse" gradientTransform="translate(135.001 5.87686) scale(87.6241 73.7833)">
<stop stop-color="#BF8800"/>
<stop offset="1" stop-color="#A36808"/>
</radialGradient>
<linearGradient id="paint7_linear_1_1174" x1="2.33753" y1="79.1675" x2="2.33753" y2="7.83491" gradientUnits="userSpaceOnUse">
<stop stop-color="#FFD97A"/>
<stop offset="1" stop-color="#EB9E21"/>
</linearGradient>
<linearGradient id="paint8_linear_1_1174" x1="7.01723" y1="77.5889" x2="7.01723" y2="9.41348" gradientUnits="userSpaceOnUse">
<stop stop-color="#E8B048"/>
<stop offset="1" stop-color="#8F6B09"/>
</linearGradient>
<linearGradient id="paint9_linear_1_1174" x1="267.659" y1="79.1675" x2="267.659" y2="7.83491" gradientUnits="userSpaceOnUse">
<stop stop-color="#E8B048"/>
<stop offset="1" stop-color="#8F6B09"/>
</linearGradient>
<linearGradient id="paint10_linear_1_1174" x1="262.973" y1="77.5889" x2="262.973" y2="9.41348" gradientUnits="userSpaceOnUse">
<stop stop-color="#FFD97A"/>
<stop offset="1" stop-color="#EB9E21"/>
</linearGradient>
<linearGradient id="paint11_linear_1_1174" x1="-0.00233755" y1="82.2957" x2="11.1034" y2="82.2957" gradientUnits="userSpaceOnUse">
<stop stop-color="#6B4200"/>
<stop offset="1" stop-color="#A87219"/>
</linearGradient>
<linearGradient id="paint12_linear_1_1174" x1="4.67733" y1="79.5469" x2="13.0552" y2="79.5469" gradientUnits="userSpaceOnUse">
<stop stop-color="#D69705"/>
<stop offset="1" stop-color="#FFDD6E"/>
</linearGradient>
<radialGradient id="paint13_radial_1_1174" cx="0" cy="0" r="1" gradientUnits="userSpaceOnUse" gradientTransform="translate(135.001 85.0421) scale(89.0003 74.9425)">
<stop stop-color="#A87219"/>
<stop offset="1" stop-color="#6B4200"/>
</radialGradient>
<linearGradient id="paint14_linear_1_1174" x1="258.899" y1="82.2957" x2="269.999" y2="82.2957" gradientUnits="userSpaceOnUse">
<stop stop-color="#6B4200"/>
<stop offset="1" stop-color="#A87219"/>
</linearGradient>
<radialGradient id="paint15_radial_1_1174" cx="0" cy="0" r="1" gradientUnits="userSpaceOnUse" gradientTransform="translate(135.001 81.1255) scale(125.636 105.791)">
<stop stop-color="#FFDD6E"/>
<stop offset="1" stop-color="#D69705"/>
</radialGradient>
<linearGradient id="paint16_linear_1_1174" x1="135.001" y1="79.1675" x2="135.001" y2="7.83491" gradientUnits="userSpaceOnUse">
<stop stop-color="#E6C400"/>
<stop offset="1" stop-color="#E3560A"/>
</linearGradient>
<radialGradient id="paint17_radial_1_1174" cx="0" cy="0" r="1" gradientUnits="userSpaceOnUse" gradientTransform="translate(61.5702 -26.2383) scale(180.992 152.402)">
<stop stop-color="#FFF5CE"/>
<stop offset="1" stop-color="#DD6E00"/>
</radialGradient>
<radialGradient id="paint18_radial_1_1174" cx="0" cy="0" r="1" gradientUnits="userSpaceOnUse" gradientTransform="translate(203.496 105.446) scale(213.052 179.399)">
<stop stop-color="#FFE6C3"/>
<stop offset="1" stop-color="#C89300"/>
</radialGradient>
<radialGradient id="paint19_radial_1_1174" cx="0" cy="0" r="1" gradientUnits="userSpaceOnUse" gradientTransform="translate(62.2375 -48.6944) scale(160.369 135.037)">
<stop stop-color="#FFEA71"/>
<stop offset="1" stop-color="#A86303"/>
</radialGradient>
<linearGradient id="paint20_linear_1_1174" x1="135.001" y1="43.5014" x2="251.868" y2="43.5014" gradientUnits="userSpaceOnUse">
<stop stop-color="#FFF5A9"/>
<stop offset="1" stop-color="#895C07"/>
</linearGradient>
<radialGradient id="paint21_radial_1_1174" cx="0" cy="0" r="1" gradientUnits="userSpaceOnUse" gradientTransform="translate(138.505 -39.5014) scale(188.841 159.012)">
<stop stop-color="#FBFFE9"/>
<stop offset="1" stop-color="#EB9F10"/>
</radialGradient>
<linearGradient id="paint22_linear_1_1174" x1="13.746" y1="76.0103" x2="13.746" y2="10.9921" gradientUnits="userSpaceOnUse">
<stop stop-color="#E6B000"/>
<stop offset="1" stop-color="#FF961F"/>
</linearGradient>
<linearGradient id="paint23_linear_1_1174" x1="256.251" y1="76.0103" x2="256.251" y2="10.9921" gradientUnits="userSpaceOnUse">
<stop stop-color="#E6D300"/>
<stop offset="1" stop-color="#FF632A"/>
</linearGradient>
<radialGradient id="paint24_radial_1_1174" cx="0" cy="0" r="1" gradientUnits="userSpaceOnUse" gradientTransform="translate(133.997 113.431) scale(136.627 115.046)">
<stop stop-color="#828618"/>
<stop offset="1" stop-color="#894C17"/>
</radialGradient>
<radialGradient id="paint25_radial_1_1174" cx="0" cy="0" r="1" gradientUnits="userSpaceOnUse" gradientTransform="translate(46.7776 4.87011) scale(81.1723 68.3506)">
<stop stop-color="#F0FF7B"/>
<stop offset="1" stop-color="#895000"/>
</radialGradient>
<radialGradient id="paint26_radial_1_1174" cx="0" cy="0" r="1" gradientUnits="userSpaceOnUse" gradientTransform="translate(95.9429 10.6676) scale(89.6542 75.4927)">
<stop stop-color="#F8FF3A"/>
<stop offset="1" stop-color="#ED7106"/>
</radialGradient>
<radialGradient id="paint27_radial_1_1174" cx="0" cy="0" r="1" gradientUnits="userSpaceOnUse" gradientTransform="translate(208.159 -0.848369) scale(91.948 77.4241)">
<stop stop-color="#FFF943"/>
<stop offset="1" stop-color="#B73A0D"/>
</radialGradient>
</defs>
</svg>
