<svg width="430" height="394" viewBox="0 0 430 394" fill="none" xmlns="http://www.w3.org/2000/svg">
<path fill-rule="evenodd" clip-rule="evenodd" d="M429.343 22.7219C429.736 28.3676 430 185.091 430 196.997C430 208.903 429.736 365.632 429.343 371.273C427.976 373.801 425.132 378.019 421.666 382.569C418.199 387.124 414.981 390.857 413.059 392.646C390.696 393.454 262.171 393.994 215 393.994C167.829 393.994 39.3082 393.454 16.9408 392.646C15.0186 390.857 11.8011 387.124 8.33444 382.569C4.86773 378.019 2.02413 373.796 0.657087 371.273C0.264345 365.627 0 208.903 0 196.997C0 185.091 0.264345 28.3676 0.657087 22.7219C2.02413 20.1989 4.86773 15.9757 8.33444 11.4254C11.8011 6.87505 15.0186 3.14259 16.9408 1.34824C39.3044 0.540286 167.829 0 215 0C262.171 0 390.692 0.540286 413.059 1.34824C414.981 3.14259 418.199 6.87505 421.666 11.4254C425.132 15.9757 427.976 20.2038 429.343 22.7219Z" fill="url(#paint0_linear_10_118)"/>
<path opacity="0.5" fill-rule="evenodd" clip-rule="evenodd" d="M215 199.811L11.7197 28.1425C11.3233 35.9356 11.3158 192.114 11.3158 199.811C11.3158 207.509 11.3233 363.692 11.7197 371.48L215 199.811Z" fill="url(#paint1_linear_10_118)"/>
<path opacity="0.5" fill-rule="evenodd" clip-rule="evenodd" d="M22.6316 12.5026L216.886 196.997L411.14 12.5026C396.895 12.0243 382.63 11.81 368.385 11.6307C346.907 11.3616 238.36 11.257 216.886 11.257C195.412 11.257 86.8607 11.3616 65.387 11.6307C51.1377 11.81 36.8733 12.0243 22.6316 12.5026Z" fill="url(#paint2_linear_10_118)"/>
<path fill-rule="evenodd" clip-rule="evenodd" d="M215 199.811L422.049 371.48C422.449 363.687 422.456 207.509 422.456 199.811C422.456 192.114 422.449 35.9356 422.049 28.1425L215 199.811Z" fill="url(#paint3_linear_10_118)"/>
<path opacity="0.5" fill-rule="evenodd" clip-rule="evenodd" d="M409.524 378.73L214.998 170.307L20.4758 378.73C34.7375 379.27 49.0218 379.512 63.2872 379.715C84.7948 380.019 193.494 380.131 214.998 380.131C236.502 380.131 345.205 380.013 366.709 379.715C380.974 379.507 395.259 379.265 409.524 378.73Z" fill="url(#paint4_linear_10_118)"/>
<path opacity="0.75" fill-rule="evenodd" clip-rule="evenodd" d="M11.3158 25.2916L215 196.997L21.7658 11.257C19.9111 13.3637 18.0415 15.8516 16.4753 17.9482C14.8566 20.1202 12.927 22.7184 11.3158 25.2916Z" fill="url(#paint5_radial_10_118)"/>
<path fill-rule="evenodd" clip-rule="evenodd" d="M411.813 11.257L215 196.997L422.456 25.2916C420.815 22.7184 418.85 20.1202 417.197 17.9482C415.606 15.8466 413.702 13.3637 411.813 11.257Z" fill="url(#paint6_radial_10_118)"/>
<path opacity="0.75" fill-rule="evenodd" clip-rule="evenodd" d="M420.048 362.981L214.998 170.307L409.524 378.73C411.391 376.36 413.273 373.574 414.85 371.222C416.483 368.784 418.426 365.869 420.048 362.981Z" fill="url(#paint7_radial_10_118)"/>
<path fill-rule="evenodd" clip-rule="evenodd" d="M20.4756 378.73L214.998 170.307L9.9519 362.981C11.5701 365.869 13.5126 368.784 15.1459 371.222C16.7263 373.574 18.6047 376.36 20.4756 378.73Z" fill="url(#paint8_radial_10_118)"/>
<path fill-rule="evenodd" clip-rule="evenodd" d="M0 135.084L105.614 0C96.8307 0.0497748 88.2186 0.104532 80.0112 0.164261L0.0856126 102.392C0.0544799 113.352 0.0233496 124.482 0 135.084Z" fill="url(#paint9_radial_10_118)"/>
<path fill-rule="evenodd" clip-rule="evenodd" d="M140.938 0.185037L0.0113313 186.779C0.00377775 192.905 0 197.12 0 198.731C0 203.556 0.041545 231.935 0.117081 264.539L199.912 0C183.642 0.0250032 162.779 0.0900244 140.938 0.185037Z" fill="url(#paint10_radial_10_118)"/>
<path fill-rule="evenodd" clip-rule="evenodd" d="M300.255 0L11.3158 383.282C14.7507 387.833 17.9346 391.57 19.8375 393.358C26.3177 393.597 41.7803 393.811 61.5881 393.994L358.333 0.357769C340.451 0.218641 320.19 0.094408 300.255 0Z" fill="url(#paint11_radial_10_118)"/>
<path fill-rule="evenodd" clip-rule="evenodd" d="M406.703 0L109.386 393.865C117.497 393.915 125.721 393.96 133.87 393.994L422.456 11.6953C422.111 11.2277 421.758 10.7551 421.397 10.2776C417.95 5.71087 414.751 1.96498 412.839 0.164167C411.284 0.104472 409.219 0.0497461 406.703 0Z" fill="url(#paint12_radial_10_118)"/>
<path fill-rule="evenodd" clip-rule="evenodd" d="M429.738 161.667L274.146 393.842C290.682 393.769 308.327 393.679 325.35 393.561L429.636 237.944C429.704 204.005 429.742 175.418 429.742 170.301C429.746 168.95 429.746 165.967 429.738 161.667Z" fill="url(#paint13_radial_10_118)"/>
<path fill-rule="evenodd" clip-rule="evenodd" d="M10.8406 196.997C10.8406 189.379 10.8494 34.8264 11.3158 27.1144L0.765531 22.5139C0.307971 28.1665 0 185.077 0 196.997C0 208.918 0.307971 365.833 0.765531 371.48L11.3158 366.88C10.8538 359.168 10.8406 204.615 10.8406 196.997Z" fill="url(#paint14_radial_10_118)"/>
<path fill-rule="evenodd" clip-rule="evenodd" d="M12.491 28.1425C14.0508 25.3873 15.9233 22.6053 17.4977 20.2798C19.0175 18.0348 20.8318 15.3709 22.6316 13.1152L19.4502 0C17.5995 1.94419 14.5017 5.98833 11.1639 10.9186C7.82606 15.8489 5.08818 20.4301 3.77197 23.1584L12.491 28.1425Z" fill="url(#paint15_radial_10_118)"/>
<path fill-rule="evenodd" clip-rule="evenodd" d="M22.1634 11.257C36.4432 10.8588 50.742 10.6804 65.0218 10.5311C86.5511 10.3072 195.36 10.22 216.886 10.22C238.411 10.22 347.225 10.3072 368.75 10.5311C383.03 10.6804 397.329 10.8588 411.608 11.257L414.912 1.12818C392.552 0.452102 264.049 0 216.886 0C169.723 0 41.2233 0.452102 18.8596 1.12818L22.1634 11.257Z" fill="url(#paint16_radial_10_118)"/>
<path fill-rule="evenodd" clip-rule="evenodd" d="M411.14 13.1124C412.94 15.3685 414.754 18.0329 416.273 20.2783C417.847 22.6042 419.72 25.3868 421.283 28.1425L430 23.1629C428.684 20.4287 425.947 15.852 422.61 10.9207C419.272 5.98947 416.175 1.94456 414.325 0L411.14 13.1124Z" fill="url(#paint17_radial_10_118)"/>
<path fill-rule="evenodd" clip-rule="evenodd" d="M422.456 27.1144C422.764 34.8264 422.77 189.379 422.77 196.997C422.77 204.615 422.764 359.173 422.456 366.88L429.49 371.48C429.795 365.828 430 208.918 430 196.997C430 185.077 429.795 28.1665 429.49 22.5139L422.456 27.1144Z" fill="url(#paint18_radial_10_118)"/>
<path fill-rule="evenodd" clip-rule="evenodd" d="M420.048 362.981C418.426 365.869 416.483 368.784 414.85 371.221C413.273 373.574 411.391 376.36 409.524 378.73L412.825 392.469C414.745 390.437 417.958 386.199 421.421 381.026C424.883 375.859 427.724 371.064 429.089 368.199L420.048 362.981Z" fill="url(#paint19_radial_10_118)"/>
<path fill-rule="evenodd" clip-rule="evenodd" d="M409.524 378.73C395.259 379.27 380.974 379.512 366.709 379.715C345.201 380.019 236.502 380.131 214.998 380.131C193.494 380.131 84.791 380.013 63.2873 379.715C49.0218 379.512 34.7375 379.27 20.4759 378.73L17.1754 392.469C39.5128 393.386 167.887 394 215.002 394C262.117 394 390.487 393.386 412.828 392.469L409.524 378.73Z" fill="#7467DE"/>
<path fill-rule="evenodd" clip-rule="evenodd" d="M20.4758 378.73C18.6049 376.36 16.7265 373.574 15.1498 371.221C13.5166 368.784 11.574 365.869 9.95585 362.981L0.910767 368.199C2.27621 371.069 5.11646 375.859 8.5791 381.026C12.0417 386.199 15.2554 390.437 17.1753 392.469L20.4758 378.73Z" fill="url(#paint20_radial_10_118)"/>
<path fill-rule="evenodd" clip-rule="evenodd" d="M19.4538 0C22.2535 15.6019 11.3638 26.8857 3.77197 23.1638L12.491 28.1425C14.0508 25.3873 15.9233 22.6053 17.4977 20.2798C19.0175 18.0348 20.8318 15.3709 22.6316 13.1152L19.4538 0Z" fill="url(#paint21_radial_10_118)"/>
<path fill-rule="evenodd" clip-rule="evenodd" d="M414.321 0C411.522 15.6019 422.41 26.8857 430 23.1638L421.283 28.1425C419.72 25.3873 417.847 22.6053 416.273 20.2798C414.754 18.0348 412.94 15.3709 411.14 13.1152L414.321 0Z" fill="url(#paint22_radial_10_118)"/>
<path fill-rule="evenodd" clip-rule="evenodd" d="M412.825 392.469C409.92 376.118 421.217 364.293 429.093 368.194L420.048 362.976C418.426 365.863 416.483 368.779 414.85 371.216C413.273 373.569 411.391 376.355 409.524 378.724L412.825 392.469Z" fill="url(#paint23_radial_10_118)"/>
<path fill-rule="evenodd" clip-rule="evenodd" d="M18.8634 2.54821C19.3542 4.23769 156.026 5.62849 216.886 5.62849C277.746 5.62849 414.418 4.23769 414.908 2.54821L414.912 2.52022C392.553 0.998757 264.048 0 216.886 0C169.724 0 41.2229 0.998757 18.8596 2.52022L18.8634 2.54821Z" fill="url(#paint24_radial_10_118)"/>
<path fill-rule="evenodd" clip-rule="evenodd" d="M214.998 389.3C155.718 389.3 20.4759 384.567 20.4759 378.73L17.1754 392.469C39.5128 393.386 167.887 394 215.002 394C262.117 394 390.487 393.386 412.828 392.469L409.528 378.73C409.524 384.567 274.278 389.3 214.998 389.3Z" fill="url(#paint25_radial_10_118)"/>
<path fill-rule="evenodd" clip-rule="evenodd" d="M423.229 368.833C421.588 371.381 419.622 373.954 417.97 376.104C416.374 378.18 414.47 380.639 412.58 382.73C398.146 383.207 383.692 383.42 369.257 383.599C360.585 383.703 351.913 383.783 343.246 383.842C366.081 383.962 388.932 383.947 411.809 383.708L412.466 384.265C413.538 387.508 414.611 390.756 415.683 393.994C414.909 390.662 414.138 387.329 413.363 383.996L413.546 382.963C416.641 378.588 419.825 374.321 423.092 370.174L423.882 369.915C425.92 370.69 427.962 371.465 430 372.24C428.099 371.098 426.202 369.95 424.305 368.808L423.897 367.939C424.286 352.979 424.275 44.7989 423.908 29.8439L424.317 28.9647C426.122 27.8174 427.927 26.6701 429.733 25.5178C427.744 26.3174 425.901 27.0625 423.935 27.8522L423.164 27.5889C420.416 23.8291 417.332 20.3374 414.306 16.8855C415.603 18.4451 416.863 20.0742 417.97 21.5195C419.622 23.6701 421.588 26.2429 423.229 28.7909C423.63 36.5093 423.638 191.19 423.638 198.814C423.638 206.438 423.63 361.114 423.229 368.833Z" fill="white"/>
<path fill-rule="evenodd" clip-rule="evenodd" d="M22.3917 11.2636C36.693 10.7824 51.0133 10.5668 65.3146 10.3864C86.8763 10.1157 195.849 10.0104 217.407 10.0104C238.965 10.0104 347.942 10.1157 369.5 10.3864C370.808 10.4014 372.113 10.4215 373.421 10.4365C315.535 8.98782 81.7146 8.52163 23.2236 9.86003L22.5656 9.30864C21.4539 6.08546 20.4632 3.22318 19.3476 0C20.0056 3.42369 20.5199 6.61679 21.1741 10.0355L20.9926 11.1132C18.5649 14.9981 15.0822 19.6749 11.7924 23.6801L11.0058 23.9157C8.5479 22.9132 6.23368 22.1412 3.77197 21.1437C6.08242 22.5523 8.24161 23.9658 10.5521 25.3744L10.968 26.2516C10.7979 41.5154 10.7752 352.5 10.9794 367.277L10.5785 368.19C9.13781 369.212 7.85212 370.235 6.40762 371.262C7.9996 370.726 9.51595 370.3 11.1079 369.764L11.8907 370.049C15.0104 374.18 18.3758 378.511 21.4274 382.646L21.6392 383.689C21.3253 385.338 21.1287 386.662 20.8035 388.366C21.401 386.802 22.0325 385.504 22.6299 383.94L23.3068 383.403C48.2112 384.105 80.3987 384.135 105.265 383.709C94.3143 383.649 76.2618 383.524 65.3108 383.388C51.0095 383.208 36.6892 382.992 22.3917 382.511C20.5161 380.401 18.633 377.919 17.0523 375.824C15.415 373.654 13.4675 371.057 11.8453 368.485C11.4445 360.696 11.4369 204.584 11.4369 196.89C11.4369 189.195 11.4445 33.084 11.8453 25.2942C13.4675 22.7227 15.415 20.1261 17.0523 17.9556C18.633 15.8502 20.5161 13.3689 22.3917 11.2636Z" fill="white"/>
<path fill-rule="evenodd" clip-rule="evenodd" d="M24.3456 37.407H405.65V353.627H24.3456V37.407Z" fill="url(#paint26_radial_10_118)"/>
<path fill-rule="evenodd" clip-rule="evenodd" d="M24.3457 195.742V37.4069L21.1358 32.6171V182.56C21.1358 189.359 18.6916 193.665 15.2554 195.742H24.3457Z" fill="url(#paint27_linear_10_118)"/>
<path fill-rule="evenodd" clip-rule="evenodd" d="M24.3457 195.736V353.616L21.1358 358.411V208.913C21.1358 202.113 18.6916 197.813 15.2554 195.736H24.3457Z" fill="url(#paint28_linear_10_118)"/>
<path fill-rule="evenodd" clip-rule="evenodd" d="M214.998 353.627H24.3458L21.1359 358.417H206.164C210.721 358.417 213.602 362.064 214.998 367.191V353.627Z" fill="#F1FF2D"/>
<path fill-rule="evenodd" clip-rule="evenodd" d="M214.998 353.627H405.646L408.856 358.417H223.832C219.275 358.417 216.394 362.064 214.998 367.191V353.627Z" fill="#FFD58F"/>
<path fill-rule="evenodd" clip-rule="evenodd" d="M405.65 195.742V37.4069L408.86 32.6171V182.56C408.86 189.359 411.304 193.665 414.737 195.742H405.65Z" fill="url(#paint29_linear_10_118)"/>
<path fill-rule="evenodd" clip-rule="evenodd" d="M405.65 195.742V353.627L408.86 358.417V208.924C408.86 202.125 411.304 197.825 414.737 195.742H405.65Z" fill="url(#paint30_linear_10_118)"/>
<path fill-rule="evenodd" clip-rule="evenodd" d="M214.998 37.4069H24.3458L21.1359 32.6171H206.164C210.721 32.6171 213.602 28.9698 214.998 23.8423V37.4069Z" fill="url(#paint31_linear_10_118)"/>
<path fill-rule="evenodd" clip-rule="evenodd" d="M214.998 37.4069H405.646L408.856 32.6171H223.832C219.275 32.6171 216.394 28.9698 214.998 23.8423V37.4069Z" fill="url(#paint32_linear_10_118)"/>
<path fill-rule="evenodd" clip-rule="evenodd" d="M27.5555 42.1968H402.44L405.65 37.407H24.3456L27.5555 42.1968Z" fill="url(#paint33_radial_10_118)"/>
<path fill-rule="evenodd" clip-rule="evenodd" d="M27.5555 348.837V42.1968L24.3456 37.407V107.735V353.627L27.5555 348.837Z" fill="url(#paint34_linear_10_118)"/>
<path fill-rule="evenodd" clip-rule="evenodd" d="M402.44 42.1968V348.837L405.65 353.627V107.735V37.407L402.44 42.1968Z" fill="url(#paint35_linear_10_118)"/>
<path fill-rule="evenodd" clip-rule="evenodd" d="M402.44 348.837H27.5555L24.3456 353.627H405.65L402.44 348.837Z" fill="url(#paint36_radial_10_118)"/>
<defs>
<linearGradient id="paint0_linear_10_118" x1="214.997" y1="394.002" x2="214.997" y2="0.00150299" gradientUnits="userSpaceOnUse">
<stop stop-color="#2C1644"/>
<stop offset="1" stop-color="#241134"/>
</linearGradient>
<linearGradient id="paint1_linear_10_118" x1="11.3162" y1="199.809" x2="215.001" y2="199.809" gradientUnits="userSpaceOnUse">
<stop stop-color="white"/>
<stop offset="1" stop-color="#9080EA"/>
</linearGradient>
<linearGradient id="paint2_linear_10_118" x1="216.883" y1="196.995" x2="216.883" y2="11.2605" gradientUnits="userSpaceOnUse">
<stop stop-color="#D097F7"/>
<stop offset="1" stop-color="#7254C4"/>
</linearGradient>
<linearGradient id="paint3_linear_10_118" x1="215.001" y1="199.809" x2="422.46" y2="199.809" gradientUnits="userSpaceOnUse">
<stop stop-color="#D097F7"/>
<stop offset="1" stop-color="#664ACB"/>
</linearGradient>
<linearGradient id="paint4_linear_10_118" x1="215.001" y1="380.13" x2="215.001" y2="170.304" gradientUnits="userSpaceOnUse">
<stop stop-color="#FEFEFF"/>
<stop offset="1" stop-color="#9786E2"/>
</linearGradient>
<radialGradient id="paint5_radial_10_118" cx="0" cy="0" r="1" gradientUnits="userSpaceOnUse" gradientTransform="translate(218.629 232.557) scale(311.107 416.478)">
<stop stop-color="#D8C1F7"/>
<stop offset="1"/>
</radialGradient>
<radialGradient id="paint6_radial_10_118" cx="0" cy="0" r="1" gradientUnits="userSpaceOnUse" gradientTransform="translate(355.18 -196.828) scale(335.622 441.127)">
<stop stop-color="#DB8BDE"/>
<stop offset="1" stop-color="#F7F7F7"/>
</radialGradient>
<radialGradient id="paint7_radial_10_118" cx="0" cy="0" r="1" gradientUnits="userSpaceOnUse" gradientTransform="translate(230.96 608.134) scale(310.345 463.098)">
<stop stop-color="#D8C1F7"/>
<stop offset="1" stop-color="#8A71D4"/>
</radialGradient>
<radialGradient id="paint8_radial_10_118" cx="0" cy="0" r="1" gradientUnits="userSpaceOnUse" gradientTransform="translate(32.1101 445.44) scale(296.521 442.47)">
<stop stop-color="#DB8BDE"/>
<stop offset="1" stop-color="#F7F7F7"/>
</radialGradient>
<radialGradient id="paint9_radial_10_118" cx="0" cy="0" r="1" gradientUnits="userSpaceOnUse" gradientTransform="translate(-130.177 138.244) scale(253.424 324.138)">
<stop stop-color="#D07CF7"/>
<stop offset="1" stop-color="#2F163F"/>
</radialGradient>
<radialGradient id="paint10_radial_10_118" cx="0" cy="0" r="1" gradientUnits="userSpaceOnUse" gradientTransform="translate(180.423 423.738) scale(317.058 419.801)">
<stop stop-color="#E2E2F0"/>
<stop offset="1" stop-color="#C290FE"/>
</radialGradient>
<radialGradient id="paint11_radial_10_118" cx="0" cy="0" r="1" gradientUnits="userSpaceOnUse" gradientTransform="translate(371.048 529.202) scale(435.451 577.632)">
<stop stop-color="#D07CF7"/>
<stop offset="1" stop-color="#9091C7"/>
</radialGradient>
<radialGradient id="paint12_radial_10_118" cx="0" cy="0" r="1" gradientUnits="userSpaceOnUse" gradientTransform="translate(381.793 546.642) scale(391.168 518.192)">
<stop stop-color="#D07CF7"/>
<stop offset="1" stop-color="#7C45C2"/>
</radialGradient>
<radialGradient id="paint13_radial_10_118" cx="0" cy="0" r="1" gradientUnits="userSpaceOnUse" gradientTransform="translate(438.779 593.414) scale(297.252 443.561)">
<stop stop-color="#746CC7"/>
<stop offset="1" stop-color="#764BC4"/>
</radialGradient>
<radialGradient id="paint14_radial_10_118" cx="0" cy="0" r="1" gradientUnits="userSpaceOnUse" gradientTransform="translate(-232.459 186.056) scale(362.096 408.438)">
<stop stop-color="#F7D4F4"/>
<stop offset="1" stop-color="#8763D4"/>
</radialGradient>
<radialGradient id="paint15_radial_10_118" cx="0" cy="0" r="1" gradientUnits="userSpaceOnUse" gradientTransform="translate(-12.3713 -20.4215) scale(55.2115 81.5535)">
<stop stop-color="#F4DDF7"/>
<stop offset="1" stop-color="#D09BF7"/>
</radialGradient>
<radialGradient id="paint16_radial_10_118" cx="0" cy="0" r="1" gradientUnits="userSpaceOnUse" gradientTransform="translate(216.883 5.62766) scale(140.072 153.873)">
<stop stop-color="#F7C3F3"/>
<stop offset="1" stop-color="#CA8DF7"/>
</radialGradient>
<radialGradient id="paint17_radial_10_118" cx="0" cy="0" r="1" gradientUnits="userSpaceOnUse" gradientTransform="translate(416.43 -24.1002) scale(38.8062 57.3431)">
<stop stop-color="#D0B0F7"/>
<stop offset="1" stop-color="#BD3CF4"/>
</radialGradient>
<radialGradient id="paint18_radial_10_118" cx="0" cy="0" r="1" gradientUnits="userSpaceOnUse" gradientTransform="translate(512.328 197.755) scale(215.272 364.236)">
<stop stop-color="#D4D4EC"/>
<stop offset="1" stop-color="#553AB1"/>
</radialGradient>
<radialGradient id="paint19_radial_10_118" cx="0" cy="0" r="1" gradientUnits="userSpaceOnUse" gradientTransform="translate(382.261 323.807) scale(59.2405 88.3988)">
<stop stop-color="#DDB0F7"/>
<stop offset="1" stop-color="#B31ADE"/>
</radialGradient>
<radialGradient id="paint20_radial_10_118" cx="0" cy="0" r="1" gradientUnits="userSpaceOnUse" gradientTransform="translate(-6.56105 402.424) scale(40.159 59.9254)">
<stop stop-color="#F7D4F4"/>
<stop offset="1" stop-color="#D09BF7"/>
</radialGradient>
<radialGradient id="paint21_radial_10_118" cx="0" cy="0" r="1" gradientUnits="userSpaceOnUse" gradientTransform="translate(13.2029 14.0707) scale(9.47782 13.9998)">
<stop stop-color="#DB8BDE"/>
<stop offset="1" stop-color="#F7F7F7"/>
</radialGradient>
<radialGradient id="paint22_radial_10_118" cx="0" cy="0" r="1" gradientUnits="userSpaceOnUse" gradientTransform="translate(420.569 14.0707) scale(9.47599 13.9998)">
<stop stop-color="#DB8BDE"/>
<stop offset="1" stop-color="#F7F7F7"/>
</radialGradient>
<radialGradient id="paint23_radial_10_118" cx="0" cy="0" r="1" gradientUnits="userSpaceOnUse" gradientTransform="translate(420.966 357.721) scale(26.7822 39.9645)">
<stop stop-color="#C4B9EB"/>
<stop offset="1" stop-color="#261236"/>
</radialGradient>
<radialGradient id="paint24_radial_10_118" cx="0" cy="0" r="1" gradientUnits="userSpaceOnUse" gradientTransform="translate(216.883 2.81519) scale(283.894 701.839)">
<stop stop-color="#D08EF7"/>
<stop offset="1"/>
</radialGradient>
<radialGradient id="paint25_radial_10_118" cx="0" cy="0" r="1" gradientUnits="userSpaceOnUse" gradientTransform="translate(233.474 582.102) scale(372.552 555.923)">
<stop stop-color="#D08EF7"/>
<stop offset="1"/>
</radialGradient>
<radialGradient id="paint26_radial_10_118" cx="0" cy="0" r="1" gradientUnits="userSpaceOnUse" gradientTransform="translate(214.997 195.517) scale(215.266 321.221)">
<stop stop-color="#9281F4"/>
<stop offset="0.8104" stop-color="#331E5C"/>
<stop offset="1" stop-color="#422970"/>
</radialGradient>
<linearGradient id="paint27_linear_10_118" x1="19.8017" y1="195.742" x2="19.8017" y2="32.6232" gradientUnits="userSpaceOnUse">
<stop stop-color="#FFD97A"/>
<stop offset="1" stop-color="#EB9E21"/>
</linearGradient>
<linearGradient id="paint28_linear_10_118" x1="19.8017" y1="358.408" x2="19.8017" y2="195.737" gradientUnits="userSpaceOnUse">
<stop stop-color="#FFD97A"/>
<stop offset="1" stop-color="#EB9E21"/>
</linearGradient>
<linearGradient id="paint29_linear_10_118" x1="410.193" y1="195.742" x2="410.193" y2="32.6232" gradientUnits="userSpaceOnUse">
<stop stop-color="#E8B048"/>
<stop offset="1" stop-color="#8F6B09"/>
</linearGradient>
<linearGradient id="paint30_linear_10_118" x1="410.193" y1="358.413" x2="410.193" y2="195.742" gradientUnits="userSpaceOnUse">
<stop stop-color="#E8B048"/>
<stop offset="1" stop-color="#8F6B09"/>
</linearGradient>
<linearGradient id="paint31_linear_10_118" x1="21.137" y1="30.628" x2="214.999" y2="30.628" gradientUnits="userSpaceOnUse">
<stop stop-color="#F5D36C"/>
<stop offset="1" stop-color="#FFF5B0"/>
</linearGradient>
<linearGradient id="paint32_linear_10_118" x1="214.999" y1="30.628" x2="408.859" y2="30.628" gradientUnits="userSpaceOnUse">
<stop stop-color="#FFDD6E"/>
<stop offset="1" stop-color="#D69705"/>
</linearGradient>
<radialGradient id="paint33_radial_10_118" cx="0" cy="0" r="1" gradientUnits="userSpaceOnUse" gradientTransform="translate(214.997 39.8047) scale(134.816 201.172)">
<stop stop-color="#BF8800"/>
<stop offset="1" stop-color="#A36808"/>
</radialGradient>
<linearGradient id="paint34_linear_10_118" x1="25.9513" y1="353.626" x2="25.9513" y2="37.4109" gradientUnits="userSpaceOnUse">
<stop stop-color="#E8B048"/>
<stop offset="1" stop-color="#8F6B09"/>
</linearGradient>
<linearGradient id="paint35_linear_10_118" x1="404.043" y1="353.626" x2="404.043" y2="37.4109" gradientUnits="userSpaceOnUse">
<stop stop-color="#FFD97A"/>
<stop offset="1" stop-color="#EB9E21"/>
</linearGradient>
<radialGradient id="paint36_radial_10_118" cx="0" cy="0" r="1" gradientUnits="userSpaceOnUse" gradientTransform="translate(214.997 351.229) scale(134.816 201.174)">
<stop stop-color="#FFDD6E"/>
<stop offset="1" stop-color="#D69705"/>
</radialGradient>
</defs>
</svg>
