<svg width="306" height="79" viewBox="0 0 306 79" fill="none" xmlns="http://www.w3.org/2000/svg">
<path fill-rule="evenodd" clip-rule="evenodd" d="M1.79048 12.8975C50.3782 5.96 133.265 0 152.995 0C172.725 0 255.612 5.96 304.2 12.8975C304.788 17.6955 305.99 37.8946 305.99 39.2113C305.99 40.528 304.783 60.7272 304.2 65.5251C255.612 72.4627 172.725 78.4227 152.995 78.4227C133.26 78.4227 50.3782 72.4627 1.79048 65.5251C1.20196 60.7272 0 40.528 0 39.2113C0 37.8946 1.20695 17.7005 1.79048 12.8975Z" fill="#999999"/>
<path fill-rule="evenodd" clip-rule="evenodd" d="M297.631 19.1967C279.901 16.7977 262.016 14.9673 244.22 13.3115C225.667 11.5858 207.074 10.0846 188.486 8.84772C181.289 8.36893 174.087 7.93003 166.885 7.5859C162.282 7.36645 157.613 7.14201 153.005 7.14201C148.397 7.14201 143.728 7.36146 139.125 7.5859C131.923 7.93003 124.721 8.36893 117.524 8.84772C98.931 10.0796 80.3428 11.5808 61.7895 13.3115C43.9943 14.9673 26.1093 16.7927 8.37888 19.1967C8.20931 21.4909 8.07965 23.8001 7.93003 26.0444C7.64575 30.3536 7.24674 34.9071 7.15198 39.2213C7.24674 43.5304 7.64575 48.084 7.93003 52.3981C8.07965 54.6425 8.20931 56.9467 8.37888 59.2459C26.1093 61.6449 43.9943 63.4753 61.7895 65.1311C80.3428 66.8567 98.936 68.358 117.524 69.5949C124.721 70.0736 131.923 70.5125 139.125 70.8567C143.728 71.0761 148.397 71.3006 153.005 71.3006C157.613 71.3006 162.282 71.0811 166.885 70.8567C174.087 70.5125 181.289 70.0736 188.486 69.5949C207.079 68.363 225.667 66.8617 244.22 65.1311C262.016 63.4753 279.901 61.6499 297.631 59.2459C297.801 56.9517 297.93 54.6425 298.08 52.3981C298.364 48.089 298.768 43.5354 298.858 39.2213C298.768 34.9121 298.364 30.3586 298.08 26.0444C297.93 23.8001 297.801 21.4909 297.631 19.1967Z" fill="url(#paint0_linear_1_1010)"/>
<path fill-rule="evenodd" clip-rule="evenodd" d="M7.14198 39.2163C7.23674 34.9072 7.63573 30.3536 7.92002 26.0395C8.06964 23.7951 8.19931 21.4909 8.36889 19.1917L1.79543 12.8975C1.20691 17.6955 0.00494385 37.8946 0.00494385 39.2113L7.14198 39.2163Z" fill="url(#paint1_linear_1_1010)"/>
<path fill-rule="evenodd" clip-rule="evenodd" d="M8.36891 19.1967C26.0993 16.7977 43.9843 14.9673 61.7795 13.3115C80.3328 11.5858 98.9261 10.0846 117.514 8.84774C124.711 8.36894 131.913 7.93005 139.115 7.58591C143.718 7.36646 148.387 7.14203 152.995 7.14203V0C133.26 0 50.3782 5.96 1.79047 12.8975L8.36891 19.1967Z" fill="url(#paint2_linear_1_1010)"/>
<path fill-rule="evenodd" clip-rule="evenodd" d="M153 0.00497437V7.147C157.608 7.147 162.277 7.36646 166.88 7.59089C174.082 7.93502 181.284 8.37392 188.481 8.85271C207.074 10.0846 225.662 11.5858 244.215 13.3165C262.011 14.9723 279.896 16.7977 297.626 19.2017L304.199 12.9075C255.617 5.96498 172.73 0.00497437 153 0.00497437Z" fill="url(#paint3_linear_1_1010)"/>
<path fill-rule="evenodd" clip-rule="evenodd" d="M298.08 26.0395C298.364 30.3486 298.768 34.9022 298.858 39.2163H306C306 37.8946 304.793 17.7004 304.209 12.9025L297.636 19.1967C297.801 21.4909 297.93 23.8001 298.08 26.0395Z" fill="url(#paint4_linear_1_1010)"/>
<path fill-rule="evenodd" clip-rule="evenodd" d="M306 39.2163H298.858C298.768 43.5255 298.364 48.079 298.08 52.3932C297.93 54.6375 297.801 56.9417 297.631 59.2409L304.204 65.5351C304.793 60.7322 306 40.533 306 39.2163Z" fill="url(#paint5_linear_1_1010)"/>
<path fill-rule="evenodd" clip-rule="evenodd" d="M297.631 59.2359C279.901 61.6349 262.016 63.4653 244.22 65.1211C225.667 66.8468 207.074 68.348 188.486 69.5849C181.289 70.0637 174.087 70.5026 166.885 70.8467C162.282 71.0662 157.613 71.2906 153.005 71.2906V78.4326C172.735 78.4326 255.622 72.4726 304.209 65.5351L297.631 59.2359Z" fill="url(#paint6_linear_1_1010)"/>
<path fill-rule="evenodd" clip-rule="evenodd" d="M153 78.4276V71.2856C148.392 71.2856 143.723 71.0662 139.12 70.8417C131.918 70.4976 124.716 70.0587 117.519 69.5799C98.926 68.348 80.3378 66.8468 61.7845 65.1161C43.9892 63.4603 26.1042 61.6349 8.37386 59.231L1.80042 65.5251C50.3832 72.4676 133.265 78.4276 153 78.4276Z" fill="url(#paint7_linear_1_1010)"/>
<path fill-rule="evenodd" clip-rule="evenodd" d="M7.92006 52.3882C7.63577 48.079 7.23679 43.5255 7.14202 39.2113H0C0 40.533 1.20695 60.7272 1.79048 65.5251L8.36394 59.231C8.19936 56.9417 8.06968 54.6325 7.92006 52.3882Z" fill="url(#paint8_linear_1_1010)"/>
<path fill-rule="evenodd" clip-rule="evenodd" d="M7.14209 39.2163C7.23685 43.5255 7.63584 48.079 7.92012 52.3932C8.06975 54.6375 8.19942 56.9417 8.36899 59.2409L11.7305 56.0889C11.6457 54.7772 11.566 53.4705 11.4812 52.1588C11.1969 47.8546 10.8079 43.5355 10.7131 39.2213C10.8129 34.9072 11.1969 30.593 11.4812 26.2839C11.566 24.9722 11.6457 23.6655 11.7305 22.3538L8.36899 19.2017C8.19942 21.4959 8.06975 23.8051 7.92012 26.0495C7.63584 30.3486 7.23685 34.9072 7.14209 39.2163Z" fill="url(#paint9_linear_1_1010)"/>
<path fill-rule="evenodd" clip-rule="evenodd" d="M11.7304 22.3488C28.4783 20.1393 45.291 18.4336 62.1136 16.8676C80.642 15.1419 99.1903 13.6457 117.759 12.4138C124.931 11.94 132.107 11.5011 139.289 11.1569C143.858 10.9425 148.431 10.718 153 10.718V7.14702C148.392 7.14702 143.723 7.36647 139.12 7.5909C131.918 7.93504 124.716 8.37393 117.519 8.85273C98.926 10.0846 80.3377 11.5859 61.7844 13.3165C43.9892 14.9723 26.1042 16.7977 8.37384 19.2017L11.7304 22.3488Z" fill="url(#paint10_linear_1_1010)"/>
<path fill-rule="evenodd" clip-rule="evenodd" d="M62.1137 61.5651C45.291 59.999 28.4833 58.2933 11.7304 56.0839L8.3689 59.2359C26.0993 61.6349 43.9843 63.4653 61.7795 65.1211C80.3328 66.8468 98.926 68.348 117.514 69.5849C124.711 70.0637 131.913 70.5026 139.115 70.8467C143.718 71.0662 148.387 71.2906 152.995 71.2906V67.7146C148.421 67.7146 143.853 67.4952 139.284 67.2757C132.103 66.9316 124.926 66.4927 117.754 66.0189C99.1854 64.787 80.642 63.2907 62.1137 61.5651Z" fill="url(#paint11_linear_1_1010)"/>
<path fill-rule="evenodd" clip-rule="evenodd" d="M153 67.7146V71.2856C157.608 71.2856 162.277 71.0662 166.88 70.8418C174.082 70.4976 181.284 70.0587 188.481 69.5799C207.074 68.348 225.662 66.8468 244.215 65.1162C262.011 63.4603 279.896 61.6349 297.626 59.231L294.264 56.0789C277.517 58.2883 260.704 59.994 243.881 61.5601C225.353 63.2858 206.805 64.782 188.241 66.0139C181.064 66.4927 173.887 66.9266 166.705 67.2707C162.142 67.4952 157.568 67.7146 153 67.7146Z" fill="url(#paint12_linear_1_1010)"/>
<path fill-rule="evenodd" clip-rule="evenodd" d="M188.246 12.4137C206.815 13.6456 225.358 15.1419 243.886 16.8675C260.709 18.4336 277.517 20.1393 294.269 22.3487L297.631 19.1967C279.901 16.7977 262.016 14.9673 244.22 13.3115C225.667 11.5858 207.074 10.0846 188.486 8.84772C181.289 8.36893 174.087 7.93003 166.885 7.5859C162.282 7.36645 157.613 7.14201 153.005 7.14201V10.713C157.578 10.713 162.147 10.9325 166.715 11.1519C173.892 11.501 181.069 11.9399 188.246 12.4137Z" fill="url(#paint13_linear_1_1010)"/>
<path fill-rule="evenodd" clip-rule="evenodd" d="M295.287 39.2163C295.187 43.5354 294.803 47.8496 294.519 52.1538C294.434 53.4655 294.354 54.7722 294.269 56.0839L297.631 59.2359C297.801 56.9417 297.93 54.6325 298.08 52.3882C298.364 48.079 298.768 43.5255 298.858 39.2113C298.768 34.9022 298.364 30.3486 298.08 26.0345C297.93 23.7901 297.801 21.4859 297.631 19.1867L294.269 22.3388C294.354 23.6505 294.434 24.9572 294.519 26.2689C294.798 30.583 295.187 34.9022 295.287 39.2163Z" fill="url(#paint14_linear_1_1010)"/>
<path opacity="0.5" fill-rule="evenodd" clip-rule="evenodd" d="M151.309 4.94753C109.968 7.1071 64.0738 11.0023 26.5333 16.9274C38.2737 15.5708 50.0441 14.4037 61.7796 13.3115C80.3329 11.5858 98.9261 10.0846 117.514 8.84772C124.711 8.36892 131.913 7.93003 139.115 7.58589C143.718 7.36644 148.387 7.14201 152.995 7.14201C157.603 7.14201 162.272 7.36146 166.875 7.58589C174.077 7.93003 181.279 8.36892 188.476 8.84772C207.069 10.0796 225.657 11.5808 244.211 13.3115C255.946 14.4037 267.716 15.5708 279.457 16.9274C241.916 11.0023 196.022 7.1071 154.681 4.94753L152.99 0.792984L151.309 4.94753Z" fill="white"/>
<path opacity="0.75" fill-rule="evenodd" clip-rule="evenodd" d="M54.0391 64.388C86.8714 68.6223 119.569 71.9939 153 73.3953C186.431 71.9939 219.124 68.6223 251.961 64.388C249.378 64.6374 246.799 64.8818 244.22 65.1162C225.667 66.8418 207.074 68.343 188.486 69.5799C181.289 70.0587 174.087 70.4976 166.885 70.8418C162.282 71.0612 157.613 71.2856 153.005 71.2856C148.397 71.2856 143.728 71.0662 139.125 70.8418C131.923 70.4976 124.721 70.0587 117.524 69.5799C98.9311 68.348 80.3429 66.8468 61.7896 65.1162C59.2011 64.8818 56.6226 64.6374 54.0391 64.388Z" fill="white"/>
<path fill-rule="evenodd" clip-rule="evenodd" d="M61.6 61.6249C80.2331 63.3606 98.8861 64.8668 117.554 66.1037C124.771 66.5775 131.993 67.0213 139.21 67.3655C143.803 67.5849 148.402 67.8044 153 67.8044C157.593 67.8044 162.192 67.5849 166.78 67.3655C174.007 67.0164 181.224 66.5775 188.441 66.1037C207.114 64.8618 225.762 63.3556 244.395 61.6249C261.307 60.0539 278.215 58.3332 295.063 56.1088C295.142 54.7971 295.222 53.4804 295.312 52.1587C295.596 47.8296 295.985 43.4906 296.085 39.1465C295.985 34.8074 295.596 30.4683 295.312 26.1392C295.222 24.8225 295.142 23.5058 295.063 22.1892C278.22 19.9648 261.307 18.2491 244.395 16.673C225.767 14.9374 207.114 13.4312 188.441 12.1943C181.224 11.7155 174.007 11.2716 166.78 10.9325C162.192 10.713 157.593 10.4886 153 10.4886C148.402 10.4886 143.803 10.708 139.21 10.9325C131.988 11.2766 124.766 11.7205 117.554 12.1943C98.8861 13.4312 80.2331 14.9374 61.6 16.673C44.6875 18.2491 27.7801 19.9648 10.9424 22.1892C10.8527 23.5058 10.7779 24.8225 10.6881 26.1392C10.3988 30.4733 10.0098 34.8074 9.91504 39.1465C10.0148 43.4906 10.4038 47.8296 10.6881 52.1587C10.7779 53.4754 10.8527 54.7921 10.9424 56.1088C27.7801 58.3332 44.6875 60.0589 61.6 61.6249Z" fill="#CC3399"/>
<path fill-rule="evenodd" clip-rule="evenodd" d="M290.823 39.1515C290.723 35.0468 290.364 30.9471 290.09 26.8524C274.734 24.9023 259.327 23.3512 243.911 21.9149C225.328 20.1842 206.72 18.683 188.102 17.4461C180.92 16.9723 173.728 16.5334 166.536 16.1893C162.027 15.9748 157.519 15.7554 153.005 15.7554C148.486 15.7554 143.973 15.9748 139.469 16.1893C132.277 16.5334 125.09 16.9723 117.908 17.4461C99.2851 18.683 80.677 20.1842 62.0937 21.9149C46.6825 23.3512 31.2763 24.9023 15.9199 26.8524C15.6406 30.9471 15.2815 35.0468 15.1868 39.1515C15.2865 43.2562 15.6456 47.3558 15.9199 51.4505C31.2763 53.4006 46.6825 54.9567 62.0937 56.3881C80.677 58.1188 99.2851 59.625 117.908 60.8569C125.09 61.3357 132.277 61.7696 139.469 62.1137C143.978 62.3282 148.491 62.5476 153.005 62.5476C157.519 62.5476 162.027 62.3332 166.536 62.1137C173.728 61.7696 180.915 61.3307 188.102 60.8569C206.725 59.625 225.328 58.1188 243.911 56.3881C259.327 54.9517 274.734 53.3956 290.09 51.4505C290.359 47.3558 290.723 43.2562 290.823 39.1515Z" fill="url(#paint15_linear_1_1010)"/>
<path fill-rule="evenodd" clip-rule="evenodd" d="M10.9424 56.1138L15.9149 51.4555C15.6356 47.3608 15.2765 43.2612 15.1818 39.1565C15.2815 35.0518 15.6406 30.9521 15.9149 26.8574L10.9424 22.1991C10.8527 23.5158 10.7779 24.8325 10.6881 26.1492C10.3988 30.4833 10.0098 34.8174 9.91504 39.1565C10.0148 43.5005 10.4038 47.8396 10.6881 52.1687C10.7779 53.4804 10.8527 54.7971 10.9424 56.1138Z" fill="url(#paint16_linear_1_1010)"/>
<path fill-rule="evenodd" clip-rule="evenodd" d="M15.9149 26.8524C31.2713 24.9023 46.6775 23.3512 62.0887 21.9148C80.672 20.1842 99.2801 18.683 117.903 17.4461C125.085 16.9723 132.272 16.5334 139.464 16.1892C143.973 15.9748 148.486 15.7553 153 15.7553V10.4936C148.402 10.4936 143.803 10.713 139.21 10.9375C131.988 11.2816 124.766 11.7255 117.554 12.1993C98.8861 13.4362 80.2331 14.9424 61.6 16.678C44.6875 18.254 27.7801 19.9697 10.9424 22.1941L15.9149 26.8524Z" fill="url(#paint17_radial_1_1010)"/>
<path fill-rule="evenodd" clip-rule="evenodd" d="M62.0887 56.393C46.6775 54.9567 31.2713 53.4006 15.9149 51.4555L10.9424 56.1138C27.7801 58.3382 44.6875 60.0588 61.6 61.6299C80.2331 63.3655 98.8861 64.8717 117.554 66.1086C124.771 66.5824 131.993 67.0263 139.21 67.3704C143.803 67.5899 148.397 67.8093 153 67.8093V62.5476C148.486 62.5476 143.973 62.3331 139.464 62.1137C132.272 61.7695 125.085 61.3306 117.903 60.8568C99.2801 59.6299 80.672 58.1187 62.0887 56.393Z" fill="url(#paint18_radial_1_1010)"/>
<path fill-rule="evenodd" clip-rule="evenodd" d="M295.058 56.1138L290.085 51.4555C290.364 47.3608 290.723 43.2612 290.818 39.1565C290.718 35.0518 290.359 30.9521 290.085 26.8574L295.058 22.1991C295.147 23.5158 295.222 24.8325 295.312 26.1492C295.596 30.4833 295.985 34.8174 296.085 39.1565C295.985 43.5005 295.596 47.8396 295.312 52.1687C295.222 53.4804 295.142 54.7971 295.058 56.1138Z" fill="url(#paint19_linear_1_1010)"/>
<path fill-rule="evenodd" clip-rule="evenodd" d="M290.085 26.8524C274.729 24.9023 259.322 23.3512 243.911 21.9148C225.323 20.1842 206.72 18.683 188.097 17.4461C180.915 16.9723 173.728 16.5334 166.536 16.1892C162.027 15.9748 157.514 15.7553 153 15.7553V10.4936C157.598 10.4936 162.197 10.713 166.79 10.9375C174.012 11.2816 181.234 11.7255 188.446 12.1993C207.119 13.4362 225.767 14.9424 244.4 16.678C261.312 18.254 278.22 19.9697 295.057 22.1941L290.085 26.8524Z" fill="url(#paint20_radial_1_1010)"/>
<path fill-rule="evenodd" clip-rule="evenodd" d="M243.911 56.393C259.322 54.9567 274.729 53.4006 290.085 51.4555L295.057 56.1138C278.22 58.3382 261.312 60.0588 244.4 61.6299C225.767 63.3655 207.119 64.8717 188.446 66.1086C181.234 66.5824 174.012 67.0263 166.79 67.3704C162.197 67.5899 157.603 67.8093 153 67.8093V62.5476C157.514 62.5476 162.027 62.3331 166.536 62.1137C173.728 61.7695 180.915 61.3306 188.097 60.8568C206.72 59.6299 225.323 58.1187 243.911 56.393Z" fill="url(#paint21_radial_1_1010)"/>
<path fill-rule="evenodd" clip-rule="evenodd" d="M32.8723 24.8475L15.3015 42.4182C15.4561 45.4307 15.7054 48.4431 15.9099 51.4505C17.5209 51.655 19.1318 51.8545 20.7428 52.049L49.6949 23.0969C44.084 23.6555 38.4781 24.234 32.8723 24.8475Z" fill="#5337AB"/>
<path fill-rule="evenodd" clip-rule="evenodd" d="M116.856 60.792L161.678 15.9648C158.785 15.8451 155.893 15.7554 153 15.7554C148.481 15.7554 143.968 15.9748 139.464 16.1893C132.272 16.5334 125.085 16.9723 117.903 17.4461C114.756 17.6556 111.609 17.87 108.467 18.0945L69.4951 57.0664C85.2654 58.4828 101.051 59.7347 116.856 60.792Z" fill="#5337AB"/>
<path fill-rule="evenodd" clip-rule="evenodd" d="M239.542 21.5158L201.099 59.9591C209.508 59.3407 217.917 58.6773 226.315 57.9641L260.729 23.5507C255.123 22.9821 249.512 22.4435 243.901 21.9248C242.455 21.7802 240.998 21.6455 239.542 21.5158Z" fill="#5337AB"/>
<defs>
<linearGradient id="paint0_linear_1_1010" x1="152.999" y1="71.2856" x2="152.999" y2="7.14551" gradientUnits="userSpaceOnUse">
<stop stop-color="#DE9B00"/>
<stop offset="1" stop-color="#FFF5B0"/>
</linearGradient>
<linearGradient id="paint1_linear_1_1010" x1="4.18392" y1="39.2153" x2="4.18392" y2="12.9" gradientUnits="userSpaceOnUse">
<stop stop-color="#FFD97A"/>
<stop offset="1" stop-color="#EB9E21"/>
</linearGradient>
<linearGradient id="paint2_linear_1_1010" x1="1.79246" y1="9.60034" x2="152.999" y2="9.60034" gradientUnits="userSpaceOnUse">
<stop stop-color="#F5D36C"/>
<stop offset="1" stop-color="#FFF5B0"/>
</linearGradient>
<linearGradient id="paint3_linear_1_1010" x1="152.999" y1="9.60033" x2="304.205" y2="9.60033" gradientUnits="userSpaceOnUse">
<stop stop-color="#FFDD6E"/>
<stop offset="1" stop-color="#D69705"/>
</linearGradient>
<linearGradient id="paint4_linear_1_1010" x1="301.814" y1="39.2153" x2="301.814" y2="12.9" gradientUnits="userSpaceOnUse">
<stop stop-color="#FFD97A"/>
<stop offset="1" stop-color="#EB9E21"/>
</linearGradient>
<linearGradient id="paint5_linear_1_1010" x1="301.814" y1="65.5311" x2="301.814" y2="39.2153" gradientUnits="userSpaceOnUse">
<stop stop-color="#E8B048"/>
<stop offset="1" stop-color="#C27C0C"/>
</linearGradient>
<linearGradient id="paint6_linear_1_1010" x1="152.999" y1="68.8308" x2="304.205" y2="68.8308" gradientUnits="userSpaceOnUse">
<stop stop-color="#A87219"/>
<stop offset="1" stop-color="#6B4200"/>
</linearGradient>
<linearGradient id="paint7_linear_1_1010" x1="1.79244" y1="68.8308" x2="152.999" y2="68.8308" gradientUnits="userSpaceOnUse">
<stop stop-color="#A36808"/>
<stop offset="1" stop-color="#BF8800"/>
</linearGradient>
<linearGradient id="paint8_linear_1_1010" x1="4.18397" y1="65.5311" x2="4.18397" y2="39.2153" gradientUnits="userSpaceOnUse">
<stop stop-color="#E8B048"/>
<stop offset="1" stop-color="#C27C0C"/>
</linearGradient>
<linearGradient id="paint9_linear_1_1010" x1="9.43731" y1="59.2359" x2="9.43731" y2="19.1952" gradientUnits="userSpaceOnUse">
<stop stop-color="#E8B048"/>
<stop offset="1" stop-color="#8F6B09"/>
</linearGradient>
<linearGradient id="paint10_linear_1_1010" x1="8.36786" y1="14.7484" x2="152.999" y2="14.7484" gradientUnits="userSpaceOnUse">
<stop stop-color="#6B4200"/>
<stop offset="1" stop-color="#A87219"/>
</linearGradient>
<linearGradient id="paint11_linear_1_1010" x1="8.3679" y1="63.6828" x2="152.999" y2="63.6828" gradientUnits="userSpaceOnUse">
<stop stop-color="#D69705"/>
<stop offset="1" stop-color="#FFDD6E"/>
</linearGradient>
<linearGradient id="paint12_linear_1_1010" x1="152.999" y1="63.6828" x2="297.63" y2="63.6828" gradientUnits="userSpaceOnUse">
<stop stop-color="#FFF5B0"/>
<stop offset="1" stop-color="#F5D36C"/>
</linearGradient>
<linearGradient id="paint13_linear_1_1010" x1="152.999" y1="14.7484" x2="297.631" y2="14.7484" gradientUnits="userSpaceOnUse">
<stop stop-color="#BF8800"/>
<stop offset="1" stop-color="#A36808"/>
</linearGradient>
<linearGradient id="paint14_linear_1_1010" x1="296.561" y1="59.2359" x2="296.561" y2="19.1952" gradientUnits="userSpaceOnUse">
<stop stop-color="#E8B048"/>
<stop offset="1" stop-color="#8F6B09"/>
</linearGradient>
<linearGradient id="paint15_linear_1_1010" x1="152.999" y1="62.5526" x2="152.999" y2="15.7539" gradientUnits="userSpaceOnUse">
<stop stop-color="#4D3097"/>
<stop offset="1" stop-color="#9281E0"/>
</linearGradient>
<linearGradient id="paint16_linear_1_1010" x1="12.912" y1="56.1113" x2="12.912" y2="22.1952" gradientUnits="userSpaceOnUse">
<stop stop-color="#45277B"/>
<stop offset="1" stop-color="#8F84DF"/>
</linearGradient>
<radialGradient id="paint17_radial_1_1010" cx="0" cy="0" r="1" gradientUnits="userSpaceOnUse" gradientTransform="translate(108.84 -37.2034) scale(114.183 114.183)">
<stop stop-color="#C6C5D8"/>
<stop offset="1" stop-color="#8672DB"/>
</radialGradient>
<radialGradient id="paint18_radial_1_1010" cx="0" cy="0" r="1" gradientUnits="userSpaceOnUse" gradientTransform="translate(88.3816 181.913) scale(160.641 160.641)">
<stop stop-color="#9480EC"/>
<stop offset="1" stop-color="#4E349F"/>
</radialGradient>
<linearGradient id="paint19_linear_1_1010" x1="293.086" y1="56.1113" x2="293.086" y2="22.1952" gradientUnits="userSpaceOnUse">
<stop stop-color="#9783F0"/>
<stop offset="1" stop-color="#573DB5"/>
</linearGradient>
<radialGradient id="paint20_radial_1_1010" cx="0" cy="0" r="1" gradientUnits="userSpaceOnUse" gradientTransform="translate(204.335 -79.8012) scale(155.853 155.853)">
<stop stop-color="#9283E0"/>
<stop offset="1" stop-color="#463395"/>
</radialGradient>
<radialGradient id="paint21_radial_1_1010" cx="0" cy="0" r="1" gradientUnits="userSpaceOnUse" gradientTransform="translate(164.944 93.9825) scale(150.592 150.592)">
<stop stop-color="#DCD5EF"/>
<stop offset="1" stop-color="#9686E4"/>
</radialGradient>
</defs>
</svg>
