<svg width="198" height="69" viewBox="0 0 198 69" fill="none" xmlns="http://www.w3.org/2000/svg">
<path fill-rule="evenodd" clip-rule="evenodd" d="M1.36722 13.8164C15.3199 11.2611 29.3233 8.95906 43.35 6.88679C61.5213 4.20298 79.7666 1.89305 98.043 0.0622895L98.6507 0L99.2584 0.0622895C117.535 1.89305 135.776 4.20298 153.951 6.88679C167.982 8.95906 181.981 11.2611 195.934 13.8164C196.433 18.4439 197.305 33.1173 197.305 34.391C197.305 35.6608 196.433 50.3342 195.934 54.9618C181.981 57.517 167.978 59.8191 153.951 61.8913C135.78 64.5752 117.535 66.8889 99.2584 68.7158L98.6507 68.7821L98.043 68.7197C79.7666 66.8928 61.5213 64.5791 43.35 61.8953C29.3194 59.823 15.3199 57.5209 1.36722 54.9656C0.868629 50.3381 0 35.6648 0 34.3949C0 33.1173 0.868629 18.4478 1.36722 13.8164Z" fill="#BA7D24"/>
<path fill-rule="evenodd" clip-rule="evenodd" d="M187.439 47.2068C187.47 46.7939 187.501 46.3809 187.532 45.968C187.766 42.8986 188.101 37.5037 188.155 34.4265C188.097 31.3259 187.762 25.9154 187.532 22.8226C187.497 22.4097 187.466 21.9968 187.439 21.5839C175.854 19.535 164.246 17.6575 152.615 15.9397C134.682 13.287 116.689 11.0044 98.6506 9.19702C80.6118 11.0083 62.6197 13.2909 44.686 15.9397C33.0549 17.6575 21.4432 19.535 9.86264 21.5839C9.83148 21.9968 9.80037 22.4097 9.7692 22.8226C9.53549 25.8959 9.20046 31.2869 9.14203 34.3641C9.20046 37.4686 9.53159 42.8752 9.7692 45.968C9.80037 46.3809 9.83148 46.7939 9.86264 47.2068C21.4432 49.2556 33.0549 51.1331 44.686 52.8509C62.6197 55.5036 80.6118 57.7862 98.6506 59.5936C116.689 57.7823 134.678 55.4997 152.615 52.8509C164.246 51.1292 175.854 49.2556 187.439 47.2068Z" fill="#CE09CB"/>
<path fill-rule="evenodd" clip-rule="evenodd" d="M98.6506 13.7854C80.8338 15.5811 63.0676 17.8403 45.356 20.4579C34.9285 22.0004 24.5204 23.6637 14.1357 25.4711C13.9487 27.6641 13.7579 32.1631 13.7151 34.36C13.7618 36.5803 13.9527 41.0988 14.1396 43.3151C24.5243 45.1225 34.9285 46.7897 45.356 48.3283C63.0676 50.9498 80.8338 53.2051 98.6506 55.0008C116.464 53.2051 134.234 50.9498 151.945 48.3283C162.373 46.7858 172.781 45.1225 183.166 43.3151C183.353 41.1221 183.543 36.6231 183.586 34.4262C183.539 32.2059 183.349 27.6914 183.166 25.4711C172.781 23.6637 162.373 21.9965 151.945 20.4579C134.234 17.8403 116.464 15.5772 98.6506 13.7854Z" fill="url(#paint0_radial_22_50)"/>
<path fill-rule="evenodd" clip-rule="evenodd" d="M6.09616 34.3601C6.15069 31.3452 6.49734 25.6776 6.73106 22.5926C6.82065 21.3929 6.91416 20.1931 7.01154 18.9934L1.37125 13.8206C0.872657 18.4481 0.00402832 33.1214 0.00402832 34.3952H6.10008C6.09618 34.3835 6.09616 34.3718 6.09616 34.3601Z" fill="url(#paint1_linear_22_50)"/>
<path fill-rule="evenodd" clip-rule="evenodd" d="M7.01135 18.9893C19.3904 16.7729 31.8045 14.7552 44.2459 12.9127C62.3276 10.2406 80.4638 7.94624 98.6545 6.12327V0L98.0469 0.0622895C79.7704 1.89305 61.5252 4.20298 43.3539 6.88679C29.3272 8.95906 15.3238 11.2611 1.37106 13.8164L7.01135 18.9893Z" fill="url(#paint2_linear_22_50)"/>
<path fill-rule="evenodd" clip-rule="evenodd" d="M98.6506 6.12719C116.837 7.95016 134.978 10.2483 153.059 12.9166C165.497 14.759 177.915 16.7728 190.294 18.9931L195.934 13.8203C181.981 11.265 167.978 8.96292 153.951 6.89066C135.78 4.20684 117.535 1.89697 99.2583 0.0662123L98.6506 0V6.12719Z" fill="url(#paint3_linear_22_50)"/>
<path fill-rule="evenodd" clip-rule="evenodd" d="M197.301 34.395H191.205C191.205 34.4067 191.205 34.4184 191.205 34.4262C191.151 37.4411 190.804 43.1086 190.57 46.1936C190.481 47.3934 190.391 48.5931 190.294 49.7968L195.934 54.9657C196.433 50.3343 197.301 35.6649 197.301 34.395Z" fill="url(#paint4_linear_22_50)"/>
<path fill-rule="evenodd" clip-rule="evenodd" d="M190.29 49.7964C177.911 52.0089 165.497 54.0266 153.055 55.8691C134.974 58.5412 116.834 60.8355 98.6468 62.6585V68.7818L99.2545 68.7194C117.531 66.8926 135.772 64.5788 153.947 61.895C167.978 59.8227 181.978 57.5206 195.93 54.9653L190.29 49.7964Z" fill="url(#paint5_linear_22_50)"/>
<path fill-rule="evenodd" clip-rule="evenodd" d="M98.6508 68.7818V62.6585C80.4639 60.8355 62.3238 58.5373 44.2421 55.8691C31.8008 54.0266 19.3867 52.0128 7.00763 49.7964L1.36728 54.9653C15.32 57.5206 29.3234 59.8227 43.3501 61.895C61.5214 64.5788 79.7666 66.8926 98.0431 68.7194L98.6508 68.7818Z" fill="url(#paint6_linear_22_50)"/>
<path fill-rule="evenodd" clip-rule="evenodd" d="M44.6861 15.9315C62.6198 13.2788 80.6119 10.9962 98.6507 9.18883V6.1272C80.4639 7.95017 62.3237 10.2483 44.2421 12.9166C31.8007 14.759 19.3866 16.7728 7.00757 18.9931L9.86272 21.5796C21.4433 19.5268 33.055 17.6532 44.6861 15.9315Z" fill="url(#paint7_linear_22_50)"/>
<path fill-rule="evenodd" clip-rule="evenodd" d="M98.6507 9.18885C116.69 11.0001 134.678 13.2828 152.615 15.9315C164.246 17.6493 175.858 19.5268 187.439 21.5757L190.29 18.9893C177.911 16.7729 165.497 14.7552 153.055 12.9127C134.974 10.2406 116.834 7.94626 98.6468 6.12329V9.18885H98.6507Z" fill="url(#paint8_linear_22_50)"/>
<path fill-rule="evenodd" clip-rule="evenodd" d="M187.653 24.3065C187.867 26.9085 188.109 31.8204 188.159 34.4263C188.152 34.8859 188.136 35.3456 188.117 35.8052C188.004 38.4267 187.731 43.3542 187.536 45.964C187.501 46.3769 187.47 46.7897 187.443 47.2026L187.672 47.413L190.298 49.793C190.38 48.827 190.45 47.8648 190.524 46.9066C190.543 46.6651 190.563 46.4314 190.578 46.1899C190.796 43.3814 191.1 38.0489 191.194 35.2521C191.202 34.9716 191.209 34.6951 191.213 34.4185C191.213 34.4107 191.213 34.399 191.213 34.3873C191.163 31.6996 190.898 26.5034 190.672 23.7572C190.637 23.3599 190.606 22.9704 190.578 22.5809C190.574 22.5108 190.571 22.4446 190.563 22.3744C190.481 21.2448 190.391 20.1113 190.302 18.9817L187.45 21.5681C187.482 21.981 187.513 22.3939 187.544 22.8068C187.544 22.8146 187.544 22.8224 187.544 22.8224C187.571 23.3248 187.61 23.8157 187.653 24.3065Z" fill="url(#paint9_linear_22_50)"/>
<path fill-rule="evenodd" clip-rule="evenodd" d="M187.439 47.2061C175.854 49.2549 164.246 51.1324 152.615 52.8502C134.682 55.5029 116.689 57.7855 98.6506 59.5929V59.811V62.6545C116.837 60.8315 134.978 58.5334 153.059 55.8651C165.497 54.0227 177.915 52.0089 190.294 49.7925L187.668 47.4125L187.439 47.2061Z" fill="url(#paint10_linear_22_50)"/>
<path fill-rule="evenodd" clip-rule="evenodd" d="M98.6507 59.5929C80.6119 57.7816 62.6198 55.499 44.6861 52.8502C33.055 51.1324 21.4433 49.2549 9.86272 47.2061L9.63294 47.4164L7.00757 49.7964C19.3866 52.0089 31.8007 54.0266 44.2421 55.8691C62.3237 58.5412 80.46 60.8355 98.6507 62.6584V59.8149V59.5929Z" fill="url(#paint11_linear_22_50)"/>
<path fill-rule="evenodd" clip-rule="evenodd" d="M9.64845 24.3065C9.43421 26.9085 9.18879 31.8204 9.14205 34.4263C9.14984 34.8859 9.16542 35.3456 9.1849 35.8052C9.29786 38.4267 9.56664 43.3542 9.7653 45.964C9.79646 46.3769 9.82763 46.7897 9.85879 47.2026L9.62895 47.413L7.00358 49.793C6.92567 48.827 6.85167 47.8648 6.77766 46.9066C6.75818 46.6651 6.74257 46.4314 6.7231 46.1899C6.50886 43.3814 6.20504 38.0489 6.11155 35.2521C6.10376 34.9716 6.09599 34.6951 6.0882 34.4185C6.0882 34.4107 6.0882 34.399 6.0882 34.3873C6.13494 31.6996 6.40763 26.5034 6.62966 23.7572C6.66082 23.3599 6.69583 22.9704 6.7231 22.5809C6.72699 22.5108 6.73483 22.4446 6.73873 22.3744C6.82442 21.2448 6.90617 20.1113 6.99966 18.9817L9.85487 21.5681C9.82371 21.981 9.79254 22.3939 9.76137 22.8068C9.76137 22.8146 9.76137 22.8224 9.76137 22.8224C9.73021 23.3248 9.69129 23.8157 9.64845 24.3065Z" fill="url(#paint12_linear_22_50)"/>
<path opacity="0.75" fill-rule="evenodd" clip-rule="evenodd" d="M98.6506 6.12751C104.458 6.69621 110.262 7.32721 116.066 8.01277C128.422 9.45401 140.754 11.0978 153.059 12.9169C158.739 13.7583 164.41 14.6308 170.074 15.5501C146.835 10.8524 122.747 7.50644 99.9321 4.83821C99.5115 3.2918 99.0908 1.74146 98.6701 0.198948L98.6506 0.191162L98.6311 0.195085C98.2105 1.7376 97.7898 3.28788 97.3691 4.83429C74.5547 7.50252 50.4666 10.8485 27.2276 15.5462C32.8952 14.6308 38.5667 13.7544 44.2459 12.913C56.551 11.0939 68.8833 9.45015 81.2429 8.00891C87.0351 7.32335 92.8428 6.69621 98.6506 6.12751Z" fill="white"/>
<path fill-rule="evenodd" clip-rule="evenodd" d="M45.356 20.4534C63.0676 17.8358 80.8338 15.5766 98.6506 13.7809V9.18457C80.6118 10.9959 62.6197 13.2785 44.686 15.9272C33.0549 17.645 21.4432 19.5225 9.86264 21.5714L11.5259 23.0867L13.6254 24.9992L14.1357 25.4628C14.498 25.3965 14.8602 25.3381 15.2186 25.2718C16.9831 24.968 18.7477 24.6681 20.5122 24.3721C28.7818 22.9854 37.0631 21.6804 45.356 20.4534Z" fill="url(#paint13_linear_22_50)"/>
<path fill-rule="evenodd" clip-rule="evenodd" d="M98.6506 13.7856C116.464 15.5813 134.234 17.8405 151.945 20.4581C160.238 21.6812 168.523 22.9861 176.789 24.3806C178.554 24.6767 180.318 24.9766 182.079 25.2804C182.441 25.3467 182.803 25.4051 183.162 25.4713L183.672 25.0078L185.771 23.0952L187.439 21.5799C175.854 19.531 164.246 17.6536 152.615 15.9358C134.682 13.2831 116.689 11.0005 98.6506 9.19312V13.7856Z" fill="url(#paint14_linear_22_50)"/>
<path fill-rule="evenodd" clip-rule="evenodd" d="M13.7151 34.3599C13.7618 32.163 13.9526 27.664 14.1357 25.471L13.6254 25.0074L11.5259 23.0949L9.86264 21.5796C9.83148 21.9925 9.80037 22.4054 9.7692 22.8183C9.7692 22.8261 9.7692 22.8339 9.7692 22.8339C9.73025 23.3247 9.69128 23.8155 9.64843 24.3063C9.43419 26.8849 9.19267 31.7734 9.14203 34.3599C9.14982 34.8429 9.16543 35.322 9.18881 35.805C9.30177 38.4265 9.57055 43.354 9.7692 45.9638C9.80037 46.3767 9.83148 46.7896 9.86264 47.2024L14.1396 43.3111C14.015 41.8465 13.8903 38.0798 13.8046 36.6074C13.7657 35.8595 13.7307 35.1078 13.7151 34.3599Z" fill="url(#paint15_linear_22_50)"/>
<path fill-rule="evenodd" clip-rule="evenodd" d="M183.162 25.471C183.349 27.6874 183.54 32.2058 183.582 34.4261C183.567 35.1584 183.536 35.8829 183.497 36.6152C183.415 38.0837 183.286 41.8543 183.162 43.319L187.439 47.2103C187.47 46.7974 187.501 46.3845 187.532 45.9716C187.731 43.3579 188 38.4304 188.113 35.8128C188.132 35.3532 188.148 34.8935 188.155 34.4339C188.105 31.828 187.863 26.9161 187.649 24.3141C187.606 23.8233 187.567 23.3325 187.532 22.8417C187.532 22.8417 187.532 22.8339 187.532 22.8261C187.497 22.4132 187.466 22.0003 187.439 21.5874L185.772 23.1027L183.672 25.0152L183.162 25.471Z" fill="url(#paint16_linear_22_50)"/>
<path fill-rule="evenodd" clip-rule="evenodd" d="M45.356 48.3286C63.0676 50.9462 80.8338 53.2054 98.6506 55.0011V59.5975C80.6118 57.7862 62.6197 55.5036 44.686 52.8549C33.0549 51.1371 21.4432 49.2595 9.86264 47.2106L11.5259 45.6954L13.6254 43.7829L14.1357 43.3193C14.498 43.3856 14.8602 43.444 15.2186 43.5102C16.9831 43.814 18.7477 44.114 20.5122 44.41C28.7818 45.7967 37.0631 47.1016 45.356 48.3286Z" fill="url(#paint17_linear_22_50)"/>
<path fill-rule="evenodd" clip-rule="evenodd" d="M98.6506 55.0011C116.464 53.2054 134.234 50.9462 151.945 48.3286C160.238 47.1055 168.523 45.8006 176.789 44.4061C178.554 44.1101 180.318 43.8101 182.079 43.5063C182.441 43.4401 182.803 43.3816 183.162 43.3154L183.672 43.779L185.771 45.6915L187.439 47.2068C175.854 49.2557 164.246 51.1332 152.615 52.851C134.682 55.5036 116.689 57.7862 98.6506 59.5936V55.0011Z" fill="url(#paint18_linear_22_50)"/>
<path fill-rule="evenodd" clip-rule="evenodd" d="M6.09616 34.4223C6.15069 37.4372 6.49734 43.1048 6.73106 46.1898C6.82065 47.3895 6.91416 48.5893 7.01154 49.7929L1.37125 54.9657C0.872657 50.3343 0.00402832 35.661 0.00402832 34.3911H6.10008C6.09618 34.4028 6.09616 34.4145 6.09616 34.4223Z" fill="url(#paint19_linear_22_50)"/>
<path fill-rule="evenodd" clip-rule="evenodd" d="M191.205 34.3601C191.151 31.3452 190.804 25.6776 190.57 22.5926C190.481 21.3929 190.391 20.1931 190.294 18.9934L195.934 13.8206C196.433 18.4481 197.305 33.1214 197.305 34.3952H191.209C191.205 34.3835 191.205 34.3718 191.205 34.3601Z" fill="url(#paint20_linear_22_50)"/>
<path opacity="0.5" fill-rule="evenodd" clip-rule="evenodd" d="M98.6506 61.2327C73.4718 58.9657 48.2502 55.8105 22.8571 52.519C29.9776 53.6954 37.1059 54.8094 44.2459 55.865C62.3275 58.5372 80.4638 60.8314 98.6545 62.6544C116.841 60.8314 134.981 58.5333 153.063 55.865C160.203 54.8094 167.331 53.6915 174.452 52.519C149.051 55.8144 123.829 58.9657 98.6506 61.2327Z" fill="white"/>
<path fill-rule="evenodd" clip-rule="evenodd" d="M55.4214 19.0089L28.6767 45.7497C34.2313 46.6417 39.7937 47.5025 45.3561 48.3244C52.7687 49.419 60.1969 50.4551 67.629 51.4173L104.642 14.4047C102.643 14.1905 100.649 13.984 98.6507 13.7815C84.2072 15.2422 69.7948 16.999 55.4214 19.0089Z" fill="url(#paint21_radial_22_50)"/>
<path fill-rule="evenodd" clip-rule="evenodd" d="M151.049 20.3215L118.575 52.8C126.353 51.869 134.121 50.8602 141.88 49.7773L168.621 23.0326C163.066 22.1406 157.504 21.2798 151.941 20.4579C151.645 20.4111 151.349 20.3683 151.049 20.3215Z" fill="url(#paint22_radial_22_50)"/>
<defs>
<radialGradient id="paint0_radial_22_50" cx="0" cy="0" r="1" gradientUnits="userSpaceOnUse" gradientTransform="translate(98.6506 13.8329) scale(94.9264 94.9264)">
<stop stop-color="#FF6EE4"/>
<stop offset="1" stop-color="#AB1BCF"/>
</radialGradient>
<linearGradient id="paint1_linear_22_50" x1="3.50467" y1="34.3932" x2="3.50467" y2="13.8178" gradientUnits="userSpaceOnUse">
<stop stop-color="#FFD97A"/>
<stop offset="1" stop-color="#EB9E21"/>
</linearGradient>
<linearGradient id="paint2_linear_22_50" x1="1.36873" y1="9.49619" x2="98.6507" y2="9.49619" gradientUnits="userSpaceOnUse">
<stop stop-color="#F5D36C"/>
<stop offset="1" stop-color="#FFF5B0"/>
</linearGradient>
<linearGradient id="paint3_linear_22_50" x1="98.6506" y1="9.49617" x2="195.933" y2="9.49617" gradientUnits="userSpaceOnUse">
<stop stop-color="#FFDD6E"/>
<stop offset="1" stop-color="#D69705"/>
</linearGradient>
<linearGradient id="paint4_linear_22_50" x1="193.795" y1="54.9649" x2="193.795" y2="34.3931" gradientUnits="userSpaceOnUse">
<stop stop-color="#E8B048"/>
<stop offset="1" stop-color="#C27C0C"/>
</linearGradient>
<linearGradient id="paint5_linear_22_50" x1="98.6507" y1="59.2856" x2="195.933" y2="59.2856" gradientUnits="userSpaceOnUse">
<stop stop-color="#A87219"/>
<stop offset="1" stop-color="#6B4200"/>
</linearGradient>
<linearGradient id="paint6_linear_22_50" x1="1.36884" y1="59.2856" x2="98.6508" y2="59.2856" gradientUnits="userSpaceOnUse">
<stop stop-color="#A36808"/>
<stop offset="1" stop-color="#BF8800"/>
</linearGradient>
<linearGradient id="paint7_linear_22_50" x1="7.00991" y1="13.8518" x2="98.6507" y2="13.8518" gradientUnits="userSpaceOnUse">
<stop stop-color="#6B4200"/>
<stop offset="1" stop-color="#A87219"/>
</linearGradient>
<linearGradient id="paint8_linear_22_50" x1="98.6507" y1="13.8518" x2="190.292" y2="13.8518" gradientUnits="userSpaceOnUse">
<stop stop-color="#BF8800"/>
<stop offset="1" stop-color="#A36808"/>
</linearGradient>
<linearGradient id="paint9_linear_22_50" x1="189.321" y1="49.7953" x2="189.321" y2="18.991" gradientUnits="userSpaceOnUse">
<stop stop-color="#E8B048"/>
<stop offset="1" stop-color="#8F6B09"/>
</linearGradient>
<linearGradient id="paint10_linear_22_50" x1="98.6506" y1="54.9303" x2="190.291" y2="54.9303" gradientUnits="userSpaceOnUse">
<stop stop-color="#FFF5B0"/>
<stop offset="1" stop-color="#F5D36C"/>
</linearGradient>
<linearGradient id="paint11_linear_22_50" x1="7.00991" y1="54.9303" x2="98.6507" y2="54.9303" gradientUnits="userSpaceOnUse">
<stop stop-color="#D69705"/>
<stop offset="1" stop-color="#FFDD6E"/>
</linearGradient>
<linearGradient id="paint12_linear_22_50" x1="7.98012" y1="49.7953" x2="7.98012" y2="18.991" gradientUnits="userSpaceOnUse">
<stop stop-color="#E8B048"/>
<stop offset="1" stop-color="#8F6B09"/>
</linearGradient>
<linearGradient id="paint13_linear_22_50" x1="9.86459" y1="17.3283" x2="98.6506" y2="17.3283" gradientUnits="userSpaceOnUse">
<stop stop-color="#F64AFF"/>
<stop offset="1" stop-color="#EF9EFF"/>
</linearGradient>
<linearGradient id="paint14_linear_22_50" x1="98.6506" y1="17.3291" x2="187.438" y2="17.3291" gradientUnits="userSpaceOnUse">
<stop stop-color="#954AFF"/>
<stop offset="1" stop-color="#8800A3"/>
</linearGradient>
<linearGradient id="paint15_linear_22_50" x1="11.6412" y1="47.2048" x2="11.6412" y2="21.5776" gradientUnits="userSpaceOnUse">
<stop stop-color="#601C9A"/>
<stop offset="1" stop-color="#D770EB"/>
</linearGradient>
<linearGradient id="paint16_linear_22_50" x1="185.662" y1="47.2048" x2="185.662" y2="21.5777" gradientUnits="userSpaceOnUse">
<stop stop-color="#5B1278"/>
<stop offset="1" stop-color="#EE31FF"/>
</linearGradient>
<linearGradient id="paint17_linear_22_50" x1="9.86459" y1="51.4541" x2="98.6506" y2="51.4541" gradientUnits="userSpaceOnUse">
<stop stop-color="#8D00A3"/>
<stop offset="1" stop-color="#9A19A1"/>
</linearGradient>
<linearGradient id="paint18_linear_22_50" x1="98.6506" y1="51.4541" x2="187.438" y2="51.4541" gradientUnits="userSpaceOnUse">
<stop stop-color="#E79EFF"/>
<stop offset="1" stop-color="#DB4AFF"/>
</linearGradient>
<linearGradient id="paint19_linear_22_50" x1="3.50467" y1="54.9685" x2="3.50467" y2="34.3931" gradientUnits="userSpaceOnUse">
<stop stop-color="#E8B048"/>
<stop offset="1" stop-color="#C27C0C"/>
</linearGradient>
<linearGradient id="paint20_linear_22_50" x1="193.795" y1="34.3932" x2="193.795" y2="13.8178" gradientUnits="userSpaceOnUse">
<stop stop-color="#FFD97A"/>
<stop offset="1" stop-color="#EB9E21"/>
</linearGradient>
<radialGradient id="paint21_radial_22_50" cx="0" cy="0" r="1" gradientUnits="userSpaceOnUse" gradientTransform="translate(49.249 -13.2662) scale(69.9475 69.9475)">
<stop stop-color="#FF99CC"/>
<stop offset="1"/>
</radialGradient>
<radialGradient id="paint22_radial_22_50" cx="0" cy="0" r="1" gradientUnits="userSpaceOnUse" gradientTransform="translate(125.339 -2.50882) scale(58.8281 58.8281)">
<stop stop-color="#FF99CC"/>
<stop offset="1"/>
</radialGradient>
</defs>
</svg>
