<svg width="1323" height="654" viewBox="0 0 1323 654" fill="none" xmlns="http://www.w3.org/2000/svg">
<path fill-rule="evenodd" clip-rule="evenodd" d="M1283.93 14.5339C1260.67 13.8679 63.3347 13.8679 40.0783 14.5339C39.9965 25.5449 37.5453 36.3047 32.8068 45.8526C27.3395 56.8744 19.7757 64.4406 11 67.9017L16.2763 595.689C23.5167 598.217 30.0283 603.572 35.4371 611.548C40.7914 619.436 44.2596 628.684 45.7209 638.805C143.524 644.127 564.154 645.58 662 645.58C759.846 645.58 1180.48 644.122 1278.28 638.805C1279.74 628.684 1283.21 619.436 1288.56 611.548C1293.98 603.572 1300.48 598.217 1307.72 595.689L1313 67.9017C1304.22 64.4406 1296.66 56.8744 1291.19 45.8526C1286.47 36.3047 1284.01 25.5449 1283.93 14.5339Z" fill="url(#paint0_radial_23_127)"/>
<path fill-rule="evenodd" clip-rule="evenodd" d="M32.696 45.5314C37.4557 36.0792 39.9178 25.4219 40 14.5268L27.5683 0C30.8641 12.8623 29.5959 25.9353 23.9515 37.1439C18.3149 48.347 9.87964 54.5512 0 54.7673L10.7956 67.3648C19.6105 63.9277 27.2042 56.4373 32.696 45.5314Z" fill="url(#paint1_linear_23_127)"/>
<path fill-rule="evenodd" clip-rule="evenodd" d="M39.7116 14.0344C39.6308 24.978 37.2106 35.6719 32.5318 45.1613C27.1334 56.1157 19.6689 63.6357 11 67.0755L21.5812 77.1889C29.2882 72.0237 35.9832 64.0209 41.1237 53.5874C44.9676 45.7907 47.6071 37.2996 49 28.4883L39.7116 14.0344Z" fill="url(#paint2_linear_23_127)"/>
<path fill-rule="evenodd" clip-rule="evenodd" d="M40.3705 14.0343H1283.63L1296 0H28L40.3705 14.0343Z" fill="url(#paint3_radial_23_127)"/>
<path fill-rule="evenodd" clip-rule="evenodd" d="M40 14.543L49.4083 29.4722H1273.59L1283 14.543C1259.76 13.8649 63.2404 13.8649 40 14.543Z" fill="url(#paint4_radial_23_127)"/>
<path fill-rule="evenodd" clip-rule="evenodd" d="M16 595.885L10.7302 67.4686L0 54.7339L5.55777 609.09L16 595.885Z" fill="url(#paint5_linear_23_127)"/>
<path fill-rule="evenodd" clip-rule="evenodd" d="M11 67.365L16.3557 596.459L27 585.815L21.8816 77.5659L11 67.365Z" fill="url(#paint6_linear_23_127)"/>
<path fill-rule="evenodd" clip-rule="evenodd" d="M1281.88 53.5874C1287.02 64.0209 1293.71 72.0237 1301.42 77.1889L1312 67.0755C1303.34 63.6357 1295.87 56.1157 1290.47 45.1613C1285.79 35.6719 1283.37 24.9725 1283.3 14.0344L1274 28.4883C1275.4 37.2996 1278.03 45.7961 1281.88 53.5874Z" fill="url(#paint7_linear_23_127)"/>
<path fill-rule="evenodd" clip-rule="evenodd" d="M1290.3 45.5368C1295.79 56.4481 1303.39 63.9385 1312.2 67.3648L1323 54.7673C1313.12 54.5512 1304.69 48.347 1299.05 37.1439C1293.41 25.9407 1292.13 12.8623 1295.43 0L1283 14.5268C1283.07 25.4273 1285.54 36.0792 1290.3 45.5368Z" fill="url(#paint8_linear_23_127)"/>
<path fill-rule="evenodd" clip-rule="evenodd" d="M1312 67.365L1301.8 77.5659L1297 585.815L1306.97 596.459L1312 67.365Z" fill="url(#paint9_linear_23_127)"/>
<path fill-rule="evenodd" clip-rule="evenodd" d="M1312.27 67.4686L1307 595.885L1317.44 609.09L1323 54.7339L1312.27 67.4686Z" fill="url(#paint10_linear_23_127)"/>
<path fill-rule="evenodd" clip-rule="evenodd" d="M1296.63 585.232C1290.65 589.029 1285.19 594.588 1280.45 601.777C1275.83 608.793 1272.33 616.71 1270 625.261L1277.88 639.966C1279.33 629.658 1282.76 620.24 1288.05 612.207C1293.41 604.084 1299.84 598.63 1307 596.056L1296.63 585.232Z" fill="url(#paint11_linear_23_127)"/>
<path fill-rule="evenodd" clip-rule="evenodd" d="M1307.52 596.459C1300.26 598.992 1293.74 604.357 1288.31 612.349C1282.94 620.252 1279.47 629.518 1278 639.659L1287.91 654C1287.34 641.978 1290.09 631.328 1296.01 622.599C1301.94 613.864 1309.4 609.488 1318 609.674L1307.52 596.459Z" fill="url(#paint12_linear_23_127)"/>
<path fill-rule="evenodd" clip-rule="evenodd" d="M1278 639.966L1270.03 624.528H53.9654L46 639.966H1278Z" fill="url(#paint13_radial_23_127)"/>
<path fill-rule="evenodd" clip-rule="evenodd" d="M1278.11 639.966H45.8875L36 654H1288L1278.11 639.966Z" fill="url(#paint14_radial_23_127)"/>
<path fill-rule="evenodd" clip-rule="evenodd" d="M54 625.269C51.6097 616.716 48.0083 608.798 43.2633 601.78C38.3995 594.59 32.7917 589.03 26.6457 585.232L16 596.047C23.357 598.622 29.9661 604.077 35.4591 612.201C40.9007 620.236 44.4189 629.656 45.9029 639.966L54 625.269Z" fill="url(#paint15_linear_23_127)"/>
<path fill-rule="evenodd" clip-rule="evenodd" d="M46 639.659C44.535 629.518 41.0581 620.252 35.6904 612.349C30.268 604.357 23.7439 598.992 16.4815 596.459L6 609.674C14.6063 609.488 22.0602 613.869 27.9865 622.599C33.9129 631.334 36.6631 641.978 36.0889 654L46 639.659Z" fill="url(#paint16_linear_23_127)"/>
<path opacity="0.75" fill-rule="evenodd" clip-rule="evenodd" d="M11.164 63.9606L2 56.8864L10.9451 67.3649C19.98 63.8413 27.4785 56.1275 32.8229 45.4701C35.7707 39.5885 37.835 33.2462 39 26.6653C34.1991 44.0824 23.7137 60.0467 11.164 63.9606Z" fill="white"/>
<path opacity="0.75" fill-rule="evenodd" clip-rule="evenodd" d="M1311.84 63.9606L1321 56.8864L1312.06 67.3649C1303.02 63.8413 1295.52 56.1275 1290.18 45.4701C1287.23 39.5885 1285.17 33.2462 1284 26.6653C1288.8 44.0824 1299.29 60.0467 1311.84 63.9606Z" fill="white"/>
<path opacity="0.75" fill-rule="evenodd" clip-rule="evenodd" d="M8 606.283L12.79 593.713L11.7905 195.077L16 595.963L8 606.283Z" fill="white"/>
<path opacity="0.75" fill-rule="evenodd" clip-rule="evenodd" d="M1315 606.283L1310.21 593.713L1311.21 195.077L1307 595.963L1315 606.283Z" fill="white"/>
<path opacity="0.75" fill-rule="evenodd" clip-rule="evenodd" d="M662 639.965C735.785 639.965 1132.27 639.951 1206 639.2C1141.76 638.796 743.445 638.562 662 638.562C580.555 638.562 182.235 638.796 118 639.2C191.633 639.97 588.215 639.965 662 639.965Z" fill="white"/>
<defs>
<radialGradient id="paint0_radial_23_127" cx="0" cy="0" r="1" gradientUnits="userSpaceOnUse" gradientTransform="translate(662.007 329.812) scale(662.497 928.086)">
<stop stop-color="#550665"/>
<stop offset="0.3767" stop-color="#461648"/>
<stop offset="0.8104" stop-color="#4B0D68"/>
<stop offset="1" stop-color="#380F72"/>
</radialGradient>
<linearGradient id="paint1_linear_23_127" x1="-0.00156571" y1="33.6754" x2="39.9992" y2="33.6754" gradientUnits="userSpaceOnUse">
<stop stop-color="#FFDD6E"/>
<stop offset="1" stop-color="#D69705"/>
</linearGradient>
<linearGradient id="paint2_linear_23_127" x1="11.0015" y1="45.6117" x2="49.0054" y2="45.6117" gradientUnits="userSpaceOnUse">
<stop stop-color="#A87219"/>
<stop offset="1" stop-color="#6B4200"/>
</linearGradient>
<radialGradient id="paint3_radial_23_127" cx="0" cy="0" r="1" gradientUnits="userSpaceOnUse" gradientTransform="translate(662 7.01979) scale(448.322 600.96)">
<stop stop-color="#FFF5B0"/>
<stop offset="1" stop-color="#F5D36C"/>
</radialGradient>
<radialGradient id="paint4_radial_23_127" cx="0" cy="0" r="1" gradientUnits="userSpaceOnUse" gradientTransform="translate(661.498 21.7515) scale(439.484 632.456)">
<stop stop-color="#BF8800"/>
<stop offset="1" stop-color="#A36808"/>
</radialGradient>
<linearGradient id="paint5_linear_23_127" x1="8.00078" y1="609.092" x2="8.00078" y2="54.7339" gradientUnits="userSpaceOnUse">
<stop stop-color="#FFD97A"/>
<stop offset="1" stop-color="#EB9E21"/>
</linearGradient>
<linearGradient id="paint6_linear_23_127" x1="18.9996" y1="596.46" x2="18.9996" y2="67.3683" gradientUnits="userSpaceOnUse">
<stop stop-color="#E8B048"/>
<stop offset="1" stop-color="#8F6B09"/>
</linearGradient>
<linearGradient id="paint7_linear_23_127" x1="1274" y1="45.6117" x2="1312" y2="45.6117" gradientUnits="userSpaceOnUse">
<stop stop-color="#6B4200"/>
<stop offset="1" stop-color="#A87219"/>
</linearGradient>
<linearGradient id="paint8_linear_23_127" x1="1283" y1="33.6808" x2="1323" y2="33.6808" gradientUnits="userSpaceOnUse">
<stop stop-color="#FFDD6E"/>
<stop offset="1" stop-color="#D69705"/>
</linearGradient>
<linearGradient id="paint9_linear_23_127" x1="1304.5" y1="596.46" x2="1304.5" y2="67.3683" gradientUnits="userSpaceOnUse">
<stop stop-color="#FFD97A"/>
<stop offset="1" stop-color="#EB9E21"/>
</linearGradient>
<linearGradient id="paint10_linear_23_127" x1="1315" y1="609.092" x2="1315" y2="54.7339" gradientUnits="userSpaceOnUse">
<stop stop-color="#E8B048"/>
<stop offset="1" stop-color="#8F6B09"/>
</linearGradient>
<linearGradient id="paint11_linear_23_127" x1="1270" y1="612.595" x2="1307" y2="612.595" gradientUnits="userSpaceOnUse">
<stop stop-color="#D69705"/>
<stop offset="1" stop-color="#FFDD6E"/>
</linearGradient>
<linearGradient id="paint12_linear_23_127" x1="1278" y1="625.235" x2="1318" y2="625.235" gradientUnits="userSpaceOnUse">
<stop stop-color="#6B4200"/>
<stop offset="1" stop-color="#A87219"/>
</linearGradient>
<radialGradient id="paint13_radial_23_127" cx="0" cy="0" r="1" gradientUnits="userSpaceOnUse" gradientTransform="translate(662 632.246) scale(606.521 908.841)">
<stop stop-color="#FFDD6E"/>
<stop offset="1" stop-color="#D69705"/>
</radialGradient>
<radialGradient id="paint14_radial_23_127" cx="0" cy="0" r="1" gradientUnits="userSpaceOnUse" gradientTransform="translate(662 646.984) scale(682.306 937.437)">
<stop stop-color="#A87219"/>
<stop offset="1" stop-color="#6B4200"/>
</radialGradient>
<linearGradient id="paint15_linear_23_127" x1="16.0016" y1="612.606" x2="54.002" y2="612.606" gradientUnits="userSpaceOnUse">
<stop stop-color="#D69705"/>
<stop offset="1" stop-color="#FFDD6E"/>
</linearGradient>
<linearGradient id="paint16_linear_23_127" x1="5.99727" y1="625.23" x2="45.9984" y2="625.23" gradientUnits="userSpaceOnUse">
<stop stop-color="#6B4200"/>
<stop offset="1" stop-color="#A87219"/>
</linearGradient>
</defs>
</svg>
