<svg width="666" height="162" viewBox="0 0 666 162" fill="none" xmlns="http://www.w3.org/2000/svg">
<path opacity="0.15" fill-rule="evenodd" clip-rule="evenodd" d="M332.59 5.05273C235.984 5.05273 85.6593 7.10552 67.4997 11.2189C70.0823 23.2941 91.3035 152.059 91.3035 152.059C120.288 132.314 228.833 112.39 332.306 112.39C332.399 112.39 332.492 112.39 332.586 112.39C332.679 112.39 332.769 112.39 332.866 112.39C436.339 112.39 544.884 132.314 573.868 152.059C573.868 152.059 595.094 23.2941 597.672 11.2189C579.517 7.10942 429.199 5.05273 332.59 5.05273Z" fill="url(#paint0_radial_24_128)"/>
<path fill-rule="evenodd" clip-rule="evenodd" d="M34.3123 155.661C49.9907 167.363 90.1427 158.633 99.242 145.238C100.968 142.698 102.086 139.738 101.525 135.92C101.817 134.736 82.3678 80.5106 80.7708 66.9863C79.5827 82.7698 34.3786 85.96 23.1097 82.8166C19.378 98.9506 20.2544 146.067 34.3123 155.661Z" fill="url(#paint1_linear_24_128)"/>
<path fill-rule="evenodd" clip-rule="evenodd" d="M35.8627 57.6996C40.2799 75.6099 54.7351 116.888 62.9034 132.379C55.2259 122.298 38.5348 125.819 32.205 135.48C28.7383 140.773 27.9787 150.433 34.3162 155.661C32.1894 154.453 26.2064 149.736 23.4485 138.572C19.5845 122.929 9.31664 94.4278 1.45605 78.1769C-6.44737 61.8364 19.6468 46.8358 35.8627 57.6996Z" fill="url(#paint2_linear_24_128)"/>
<path fill-rule="evenodd" clip-rule="evenodd" d="M17.4344 54.6655C13.3483 55.5848 9.53485 57.4233 6.51994 59.8812C11.1046 65.8409 33.8022 124.885 33.2451 134.058C35.8549 130.845 39.6528 128.461 43.7662 127.242C37.4442 116.518 19.012 61.6146 17.4344 54.6655Z" fill="url(#paint3_radial_24_128)"/>
<path fill-rule="evenodd" clip-rule="evenodd" d="M66.5727 116.296C63.4488 102.281 75.9135 94.323 90.2869 93.7271C94.7158 114.119 98.1825 124.188 101.525 135.924C97.2944 121.496 69.8993 131.203 66.5727 116.296Z" fill="url(#paint4_linear_24_128)"/>
<path fill-rule="evenodd" clip-rule="evenodd" d="M40.6771 22.1756C37.6622 25.4476 37.5375 30.7256 40.346 35.9842C53.3678 60.3567 63.5421 99.4687 66.5726 116.296C65.4586 110.083 70.4133 104.949 80.3267 100.988C102.549 92.1106 143.807 89.8903 179.854 89.8903H332.563V0H177.789C138.779 0 55.5024 6.08825 40.6771 22.1756Z" fill="url(#paint5_radial_24_128)"/>
<path fill-rule="evenodd" clip-rule="evenodd" d="M38.0751 65.8179C37.6583 64.3844 37.2688 63.0172 36.9143 61.7279C27.1567 55.3514 13.7143 58.4403 6.63667 65.5686C2.79986 69.4171 0.797688 74.5471 2.24282 79.8329C2.7531 80.9197 3.27506 82.0532 3.80092 83.2296C2.81153 78.3372 4.73188 73.5382 8.2337 69.9351C15.1555 62.7757 28.4694 59.6361 38.0751 65.8179ZM57.9992 121.847C52.838 117.496 44.7827 117.352 37.9582 120.149C26.997 124.636 20.827 135.842 26.3543 146.476C24.5586 137.159 31.4259 128.301 39.7267 124.811C46.8082 121.835 55.0077 121.695 60.126 126.669C59.4405 125.17 58.7315 123.553 57.9992 121.847Z" fill="url(#paint6_linear_24_128)"/>
<path fill-rule="evenodd" clip-rule="evenodd" d="M630.809 155.661C615.134 167.363 574.982 158.633 565.879 145.238C564.157 142.698 563.036 139.738 563.597 135.92C563.304 134.736 582.753 80.5106 584.346 66.9863C585.535 82.7698 630.735 85.96 642.011 82.8166C645.747 98.9506 644.871 146.067 630.809 155.661Z" fill="url(#paint7_linear_24_128)"/>
<path fill-rule="evenodd" clip-rule="evenodd" d="M629.263 57.6996C624.846 75.6099 610.386 116.888 602.226 132.379C609.903 122.298 626.594 125.819 632.924 135.48C636.395 140.773 637.151 150.433 630.813 155.661C632.944 154.453 638.923 149.736 641.681 138.572C645.549 122.929 655.813 94.4278 663.673 78.1769C671.573 61.8364 645.479 46.8358 629.263 57.6996Z" fill="url(#paint8_linear_24_128)"/>
<path fill-rule="evenodd" clip-rule="evenodd" d="M647.691 54.6655C651.777 55.5848 655.591 57.4233 658.605 59.8812C654.021 65.8409 631.319 124.885 631.88 134.058C629.27 130.845 625.469 128.461 621.359 127.242C627.681 116.518 646.113 61.6146 647.691 54.6655Z" fill="url(#paint9_radial_24_128)"/>
<path fill-rule="evenodd" clip-rule="evenodd" d="M598.553 116.296C601.677 102.281 589.212 94.323 574.835 93.7271C570.406 114.119 566.939 124.188 563.597 135.924C567.827 121.496 595.226 131.203 598.553 116.296Z" fill="url(#paint10_linear_24_128)"/>
<path fill-rule="evenodd" clip-rule="evenodd" d="M658.488 65.5683C651.411 58.4401 637.964 55.3472 628.211 61.7276C627.856 63.0208 627.471 64.3881 627.05 65.8176C636.659 59.6359 649.973 62.7715 656.891 69.9388C660.389 73.538 662.313 78.3369 661.324 83.2332C661.854 82.0569 662.376 80.9233 662.882 79.8366C664.327 74.5507 662.321 69.4168 658.488 65.5683ZM627.167 120.148C620.338 117.352 612.291 117.496 607.126 121.847C606.393 123.553 605.685 125.169 604.995 126.673C610.113 121.699 618.317 121.839 625.398 124.815C633.699 128.305 640.57 137.163 638.771 146.48C644.294 135.842 638.124 124.636 627.167 120.148Z" fill="url(#paint11_linear_24_128)"/>
<path fill-rule="evenodd" clip-rule="evenodd" d="M76.155 92.6912C69.1981 95.636 64.9562 99.3053 63.8733 103.567C64.3213 105.452 64.7264 107.252 65.0965 108.946C65.7703 104.155 70.3511 100.08 78.2429 96.8396C100.072 87.5845 143.546 85.1578 179.749 85.1578C212.784 85.1578 299.527 85.1578 332.567 85.1578V80.429C299.492 80.429 212.714 80.429 179.64 80.429C143.278 80.429 97.5944 83.0583 76.155 92.6912ZM44.8529 30.4726C60.4533 15.1449 139.312 9.46173 178.008 9.46173C211.623 9.46173 298.951 9.46173 332.567 9.46173V4.73291C298.912 4.73291 211.553 4.73291 177.902 4.73291C139.051 4.73291 57.9798 10.6186 42.7689 26.3242C40.3929 28.6535 39.5009 31.9567 40.128 35.5598C40.1981 35.7039 40.2721 35.8441 40.35 35.9883C40.7434 36.7206 41.1291 37.4607 41.5108 38.2163C41.4718 35.2014 42.5976 32.4864 44.8529 30.4726Z" fill="url(#paint12_linear_24_128)"/>
<path fill-rule="evenodd" clip-rule="evenodd" d="M624.448 22.1756C627.463 25.4476 627.588 30.7256 624.779 35.9842C611.758 60.3567 601.587 99.4687 598.553 116.296C599.671 110.083 594.716 104.949 584.803 100.988C562.584 92.1106 521.322 89.8903 485.275 89.8903H332.563V0H487.336C526.343 0 609.627 6.08825 624.448 22.1756Z" fill="url(#paint13_radial_24_128)"/>
<path fill-rule="evenodd" clip-rule="evenodd" d="M588.97 92.6912C595.927 95.636 600.169 99.3053 601.252 103.567C600.808 105.452 600.395 107.252 600.029 108.946C599.355 104.155 594.77 100.08 586.882 96.8396C565.054 87.5845 521.579 85.1578 485.377 85.1578C452.345 85.1578 365.598 85.1578 332.563 85.1578V80.429C365.633 80.429 452.419 80.429 485.489 80.429C521.848 80.429 567.531 83.0583 588.97 92.6912ZM620.272 30.4726C604.672 15.1449 525.813 9.46173 487.118 9.46173C453.498 9.46173 366.175 9.46173 332.559 9.46173V4.73291C366.214 4.73291 453.568 4.73291 487.223 4.73291C526.078 4.73291 607.145 10.6186 622.356 26.3242C624.732 28.6535 625.624 31.9567 624.997 35.5598C624.923 35.7039 624.849 35.8441 624.771 35.9883C624.382 36.7206 623.996 37.4607 623.611 38.2163C623.653 35.2014 622.528 32.4864 620.272 30.4726Z" fill="url(#paint14_linear_24_128)"/>
<defs>
<radialGradient id="paint0_radial_24_128" cx="0" cy="0" r="1" gradientUnits="userSpaceOnUse" gradientTransform="translate(348.847 546.82) scale(868.484 868.484)">
<stop offset="0.4535" stop-color="white"/>
<stop offset="0.5465" stop-color="#4A2121"/>
<stop offset="0.5483" stop-color="#4D2525"/>
<stop offset="0.5796" stop-color="#7C5E5E"/>
<stop offset="0.6109" stop-color="#A48F8F"/>
<stop offset="0.6416" stop-color="#C5B7B7"/>
<stop offset="0.6715" stop-color="#DED7D7"/>
<stop offset="0.7005" stop-color="#F0EDED"/>
<stop offset="0.7281" stop-color="#FBFAFA"/>
<stop offset="0.7528" stop-color="white"/>
</radialGradient>
<linearGradient id="paint1_linear_24_128" x1="21.7864" y1="132.086" x2="95.1084" y2="102.462" gradientUnits="userSpaceOnUse">
<stop stop-color="#1A0838"/>
<stop offset="0.1746" stop-color="#1F0B4F"/>
<stop offset="0.3595" stop-color="#5C0E60"/>
<stop offset="0.4963" stop-color="#1C0F66"/>
<stop offset="0.6241" stop-color="#610E60"/>
<stop offset="0.7673" stop-color="#310A54"/>
<stop offset="0.9175" stop-color="#2E053E"/>
<stop offset="1" stop-color="#17012E"/>
</linearGradient>
<linearGradient id="paint2_linear_24_128" x1="11.7461" y1="110.679" x2="50.8792" y2="94.8676" gradientUnits="userSpaceOnUse">
<stop stop-color="#0F2866"/>
<stop offset="0.3866" stop-color="#9035C4"/>
<stop offset="0.4775" stop-color="#9729AD"/>
<stop offset="0.665" stop-color="#1E1384"/>
<stop offset="0.8128" stop-color="#27056A"/>
<stop offset="0.9015" stop-color="#180061"/>
</linearGradient>
<radialGradient id="paint3_radial_24_128" cx="0" cy="0" r="1" gradientUnits="userSpaceOnUse" gradientTransform="translate(-38.4412 5.02818) scale(162.611 162.61)">
<stop offset="0.0037" stop-color="#ED6161"/>
<stop offset="1"/>
</radialGradient>
<linearGradient id="paint4_linear_24_128" x1="66.089" y1="114.821" x2="101.529" y2="114.821" gradientUnits="userSpaceOnUse">
<stop stop-color="#160042"/>
<stop offset="1" stop-color="#5C1F8A"/>
</linearGradient>
<radialGradient id="paint5_radial_24_128" cx="0" cy="0" r="1" gradientUnits="userSpaceOnUse" gradientTransform="translate(-126.967 117.526) scale(580.192 580.192)">
<stop offset="0.3285" stop-color="#4C1D70"/>
<stop offset="0.3696" stop-color="#8645CC"/>
<stop offset="0.3824" stop-color="#422EB2"/>
<stop offset="0.3972" stop-color="#49199C"/>
<stop offset="0.4134" stop-color="#810B8C"/>
<stop offset="0.4318" stop-color="#5F0383"/>
<stop offset="0.4572" stop-color="#2F0080"/>
<stop offset="0.6611" stop-color="#710D99"/>
<stop offset="0.8478" stop-color="#6D14A8"/>
<stop offset="1" stop-color="#7617AD"/>
</radialGradient>
<linearGradient id="paint6_linear_24_128" x1="10.4848" y1="107.44" x2="49.0838" y2="91.845" gradientUnits="userSpaceOnUse">
<stop offset="0.1041" stop-color="#6B4200"/>
<stop offset="0.4981" stop-color="#FFC261"/>
<stop offset="1" stop-color="#6B4200"/>
</linearGradient>
<linearGradient id="paint7_linear_24_128" x1="570.016" y1="102.457" x2="643.341" y2="132.082" gradientUnits="userSpaceOnUse">
<stop stop-color="#120838"/>
<stop offset="0.1746" stop-color="#240B4F"/>
<stop offset="0.3595" stop-color="#600E5F"/>
<stop offset="0.4963" stop-color="#580F66"/>
<stop offset="0.6241" stop-color="#3A0E61"/>
<stop offset="0.7673" stop-color="#1A0A54"/>
<stop offset="0.9175" stop-color="#2E053E"/>
<stop offset="1" stop-color="#15012E"/>
</linearGradient>
<linearGradient id="paint8_linear_24_128" x1="614.248" y1="94.8637" x2="653.383" y2="110.675" gradientUnits="userSpaceOnUse">
<stop offset="0.0985" stop-color="#420061"/>
<stop offset="0.1872" stop-color="#3B056A"/>
<stop offset="0.335" stop-color="#571384"/>
<stop offset="0.5225" stop-color="#A229AD"/>
<stop offset="0.6134" stop-color="#A035C4"/>
<stop offset="1" stop-color="#400F66"/>
</linearGradient>
<radialGradient id="paint9_radial_24_128" cx="0" cy="0" r="1" gradientUnits="userSpaceOnUse" gradientTransform="translate(664.681 6.07795) scale(131.504 131.504)">
<stop offset="0.0037" stop-color="#ED6161"/>
<stop offset="1"/>
</radialGradient>
<linearGradient id="paint10_linear_24_128" x1="563.599" y1="114.821" x2="599.036" y2="114.821" gradientUnits="userSpaceOnUse">
<stop stop-color="#461F8A"/>
<stop offset="1" stop-color="#42003B"/>
</linearGradient>
<linearGradient id="paint11_linear_24_128" x1="616.04" y1="91.8456" x2="654.638" y2="107.441" gradientUnits="userSpaceOnUse">
<stop stop-color="#6B4200"/>
<stop offset="0.5019" stop-color="#FFC261"/>
<stop offset="0.8959" stop-color="#6B4200"/>
</linearGradient>
<linearGradient id="paint12_linear_24_128" x1="39.9293" y1="56.8383" x2="332.563" y2="56.8383" gradientUnits="userSpaceOnUse">
<stop stop-color="#D69705"/>
<stop offset="0.0669" stop-color="#FFDD6E"/>
<stop offset="0.5242" stop-color="#EBA605"/>
<stop offset="1" stop-color="#FFD570"/>
</linearGradient>
<radialGradient id="paint13_radial_24_128" cx="0" cy="0" r="1" gradientUnits="userSpaceOnUse" gradientTransform="translate(792.092 117.526) rotate(180) scale(580.192 580.192)">
<stop offset="0.3285" stop-color="#401D70"/>
<stop offset="0.3696" stop-color="#4A45CC"/>
<stop offset="0.3824" stop-color="#6E2EB2"/>
<stop offset="0.3972" stop-color="#49199C"/>
<stop offset="0.4134" stop-color="#320B8C"/>
<stop offset="0.4318" stop-color="#034583"/>
<stop offset="0.4572" stop-color="#1C0080"/>
<stop offset="0.6611" stop-color="#990D86"/>
<stop offset="0.8478" stop-color="#8314A8"/>
<stop offset="1" stop-color="#7117AD"/>
</radialGradient>
<linearGradient id="paint14_linear_24_128" x1="332.563" y1="56.8383" x2="625.196" y2="56.8383" gradientUnits="userSpaceOnUse">
<stop stop-color="#FFD570"/>
<stop offset="0.4758" stop-color="#EBA605"/>
<stop offset="0.9331" stop-color="#FFDD6E"/>
<stop offset="1" stop-color="#D69705"/>
</linearGradient>
</defs>
</svg>
